<svg width="1440" height="771" viewBox="0 0 1440 771" fill="none" xmlns="http://www.w3.org/2000/svg">
<g clip-path="url(#clip0_44_171)">
<rect width="1440" height="771" fill="white"/>
<rect width="1488" height="1080" fill="#0A3C34"/>
<g clip-path="url(#clip1_44_171)">
<path d="M414.719 143.677C415.391 139.639 415.739 134.487 415.739 128.222V95.7554C415.739 89.5128 415.391 84.3609 414.719 80.2997C414.603 79.5803 414.418 78.7913 414.209 77.979C413.142 73.9178 416.296 69.9263 420.516 69.9263H439.53C442.892 69.9263 444.585 72.2469 444.585 76.8883C444.585 79.6963 444.029 82.2491 442.892 84.5233C441.779 86.7976 440.342 88.9094 438.626 90.8356C436.91 92.7617 435.055 94.5718 433.107 96.2427C431.136 97.9368 429.304 99.5845 427.588 101.232C425.872 102.88 424.435 104.597 423.322 106.407C422.278 108.078 421.722 109.888 421.652 111.791C421.583 113.346 422.046 114.924 423.067 116.085C424.226 117.43 425.687 118.127 427.403 118.127C430.209 118.127 433.014 116.757 435.82 114.042C438.626 111.327 441.153 107.776 443.379 103.414C445.629 99.0507 447.437 94.1541 448.852 88.7469C450.243 83.3398 450.962 77.979 450.962 72.6879C450.962 70.8545 451.727 69.9263 453.234 69.9263H474.127C475.078 69.9263 475.866 70.2512 476.469 70.8777C477.072 71.5275 476.817 72.9664 475.68 75.1942C472.249 81.9242 467.843 88.4685 462.463 94.7807C457.107 101.116 451.055 107.289 444.33 113.3C442.73 114.669 442.174 115.736 442.637 116.549C443.124 117.361 444.284 117.384 446.116 116.665L451.889 114.39C454.208 113.509 456.388 113.393 458.428 114.019C460.469 114.669 462.046 116.015 463.182 118.103L469.907 130.728C473.756 137.945 476.724 143.306 478.857 146.833C479.576 148.04 480.364 149.27 481.06 150.361C482.08 151.962 480.944 154.051 479.043 154.051H462.231C459.194 154.051 456.643 153.285 454.602 151.776C452.562 150.245 450.73 147.971 449.13 144.93C447.762 142.447 446.371 139.871 444.933 137.249C443.495 134.627 442.058 132.213 440.62 130.101C439.182 127.99 437.745 126.226 436.353 124.88C434.962 123.511 433.617 122.838 432.319 122.838C431.206 122.838 430.278 123.511 429.559 124.88C428.84 126.249 428.469 127.874 428.469 129.8C428.469 132.608 429.559 135.369 431.762 138.085C433.965 140.8 437.42 144.211 442.15 148.295C443.982 149.897 444.794 151.266 444.562 152.38C444.33 153.494 443.356 154.074 441.687 154.074H420.516C416.296 154.074 413.142 150.082 414.209 145.998C414.418 145.186 414.603 144.397 414.719 143.677Z" fill="#FBCD67"/>
<path d="M522.868 156C517.651 156 512.804 154.886 508.283 152.705C503.761 150.5 499.796 147.483 496.387 143.631C492.978 139.778 490.242 135.253 488.155 130.055C486.068 124.857 484.909 119.24 484.677 113.23C484.445 106.894 485.187 101 486.903 95.5C488.619 90.0232 491.077 85.2194 494.231 81.135C497.384 77.0506 501.164 73.8481 505.523 71.5274C509.883 69.2067 514.636 68.0464 519.761 68.0464C524.885 68.0464 529.732 69.1603 534.3 71.3417C538.868 73.5464 542.856 76.5633 546.241 80.4156C549.65 84.2679 552.386 88.7932 554.473 93.9915C556.56 99.2131 557.72 104.806 557.951 110.816C558.183 117.152 557.441 123.07 555.725 128.546C554.009 134.046 551.552 138.827 548.398 142.911C545.244 146.996 541.465 150.198 537.105 152.519C532.746 154.84 527.992 156 522.868 156ZM507.494 114.762C509.326 127.734 511.761 137.086 514.752 142.772C517.743 148.458 521.709 151.034 526.578 150.454C531.471 149.804 534.578 146.23 535.946 139.686C537.314 133.165 537.036 123 535.111 109.215C533.349 96.2426 530.937 86.8671 527.9 81.135C524.862 75.4029 520.897 72.8502 516.004 73.5C511.112 74.0569 508.004 77.6308 506.636 84.1983C505.268 90.7658 505.546 100.954 507.471 114.738L507.494 114.762Z" fill="#FBCD67"/>
<path d="M660.35 143.677C661.023 139.639 661.37 134.487 661.37 128.222V79.7891C661.37 78.4199 661.138 77.5381 660.698 77.1436C660.257 76.7491 659.469 76.633 658.356 76.7723C657.081 77.0043 655.597 77.8166 653.904 79.1858C652.211 80.555 650.495 82.3187 648.733 84.4769C646.971 86.6351 645.231 89.095 643.516 91.8799C641.8 94.6415 640.223 97.5887 638.762 100.722C638.368 101.673 637.742 101.975 636.907 101.627C636.072 101.255 635.655 100.536 635.655 99.3988V76.0993C635.655 72.6879 638.414 69.9263 641.823 69.9263H700.465C703.874 69.9263 706.633 72.6879 706.633 76.0993V99.3756C706.633 100.49 706.216 101.232 705.381 101.603C704.547 101.975 703.92 101.673 703.526 100.698C702.089 97.5655 700.512 94.6183 698.773 91.8566C697.057 89.095 695.318 86.6351 693.555 84.4537C691.793 82.2955 690.077 80.5318 688.384 79.1626C686.692 77.7934 685.231 77.0043 683.932 76.7491C682.819 76.5866 682.031 76.7026 681.59 77.1204C681.15 77.5149 680.941 78.3967 680.941 79.7659V128.222C680.941 134.464 681.289 139.616 681.961 143.677C682.101 144.49 682.309 145.395 682.564 146.323C683.608 150.222 680.756 154.097 676.698 154.097H665.614C661.579 154.097 658.704 150.245 659.747 146.323C660.002 145.395 660.211 144.49 660.35 143.677Z" fill="#FBCD67"/>
<path d="M773.786 134.951C773.624 142.494 776.221 147.785 781.601 150.825C782.157 151.382 782.435 152.078 782.435 152.867C782.435 153.656 781.948 154.074 780.998 154.074H744.847C743.897 154.074 743.456 153.702 743.595 152.983C743.711 152.264 744.059 151.614 744.616 151.057C747.166 149.525 749.068 147.39 750.274 144.629C751.479 141.867 752.036 138.641 751.966 134.951C750.853 137.829 749.369 140.567 747.514 143.12C745.682 145.696 743.642 147.901 741.439 149.804C739.236 151.684 736.871 153.192 734.343 154.306C731.816 155.42 729.358 156 726.946 156C724.372 156 722.007 155.582 719.804 154.747C717.602 153.911 715.7 152.751 714.1 151.266C712.5 149.781 711.225 148.017 710.251 145.975C709.3 143.932 708.813 141.751 708.813 139.43C708.813 136.785 709.486 134.371 710.854 132.213C712.222 130.055 713.984 128.129 716.21 126.435C718.413 124.74 720.941 123.302 723.77 122.118C726.622 120.911 729.52 119.913 732.488 119.124C735.201 118.405 737.543 117.732 739.514 117.152C741.485 116.548 742.459 115.806 742.459 114.924C742.459 114.599 741.856 114.228 740.65 113.787C739.445 113.346 737.937 112.835 736.152 112.232C734.343 111.629 732.372 110.863 730.216 109.958C728.059 109.03 725.996 107.892 724.025 106.523C722.054 105.154 720.315 103.506 718.807 101.534C717.277 99.5612 716.326 97.2637 715.932 94.6181C715.445 91.578 715.584 88.5612 716.349 85.5907C717.115 82.6202 718.575 79.9514 720.732 77.6076C722.888 75.2405 725.764 73.3375 729.311 71.8987C732.882 70.4599 737.172 69.7405 742.227 69.7405C752.708 69.7405 760.615 72.8038 765.949 78.9304C771.282 85.0569 773.902 93.8523 773.809 105.316V134.998L773.786 134.951ZM727.41 94.6877C727.41 96.1266 727.827 97.6118 728.662 99.1434C729.497 100.675 730.68 102.091 732.21 103.413C733.74 104.736 735.48 105.989 737.427 107.15C739.398 108.31 741.532 109.262 743.85 109.981C745.381 110.538 746.424 111.234 747.027 112.023C747.63 112.835 747.862 113.671 747.746 114.553C747.63 115.435 747.19 116.363 746.424 117.314C745.659 118.266 744.755 119.148 743.711 119.96C742.181 121.074 740.65 122.281 739.097 123.557C737.543 124.833 736.245 126.226 735.248 127.711C734.251 129.196 733.671 130.728 733.509 132.329C733.346 133.93 733.903 135.624 735.201 137.388C736.894 139.709 738.633 140.753 740.488 140.521C742.343 140.289 744.082 139.43 745.705 137.945C747.352 136.46 748.697 134.65 749.787 132.468C750.876 130.31 751.479 128.5 751.642 127.061V97.9599C751.642 94.9198 751.039 92.3671 749.833 90.3249C748.627 88.2827 747.12 86.7278 745.334 85.7067C743.526 84.6624 741.601 84.0823 739.514 83.9662C737.427 83.8502 735.48 84.1983 733.694 84.9873C731.885 85.7996 730.401 87.0063 729.196 88.654C727.99 90.3017 727.387 92.3206 727.387 94.7341L727.41 94.6877Z" fill="#FBCD67"/>
<path d="M933.97 77.6771C932.926 73.7784 935.778 69.9028 939.836 69.9028H961.169C962.537 69.9028 963.186 70.4366 963.14 71.4577C963.094 72.502 962.723 73.4303 962.004 74.2193C954.955 81.5062 949.761 88.5147 946.445 95.1982C943.291 101.557 941.622 107.985 941.482 114.46C941.413 117.361 942.526 121.793 944.149 124.183C945.772 126.574 948.021 128.732 950.897 130.519C953.888 132.399 957.505 133.861 961.702 134.905C965.899 135.949 970.607 136.46 975.824 136.46C979.905 136.46 983.244 135.671 985.864 134.116C988.461 132.561 989.76 130.403 989.76 127.688C989.76 124.323 988.461 121.793 985.864 120.122C983.267 118.428 979.951 117.407 975.963 116.989C971.952 116.595 967.569 116.757 962.815 117.477C958.062 118.196 953.54 119.24 949.297 120.61C947.929 121.004 947.14 120.053 946.885 117.732C946.561 114.135 946.932 110.909 947.975 108.124C949.019 105.316 950.479 102.949 952.358 101.023C954.236 99.0969 956.392 97.6349 958.85 96.637C961.285 95.6391 963.743 95.1286 966.247 95.1286C970.421 95.1286 974.317 96.0104 977.957 97.7741C981.598 99.5379 984.775 101.951 987.441 104.991C990.131 108.032 992.241 111.629 993.818 115.759C995.372 119.89 996.16 124.323 996.16 129.034C996.16 132.793 995.464 136.228 994.05 139.314C992.659 142.401 990.688 145.023 988.16 147.181C985.633 149.34 982.664 151.034 979.279 152.24C975.894 153.447 972.137 154.051 968.056 154.051H939.882C935.848 154.051 932.972 150.198 934.016 146.299C934.271 145.371 934.48 144.466 934.619 143.654C935.291 139.616 935.639 134.464 935.639 128.198V95.7319C935.639 89.4893 935.291 84.3374 934.619 80.2763C934.48 79.464 934.271 78.559 934.016 77.6307L933.97 77.6771Z" fill="#FBCD67"/>
<path d="M1026.81 147.066C1027.77 150.593 1025.1 154.074 1021.46 154.074H1007.1C1003.3 154.074 1000.68 150.361 1001.84 146.764C1003.88 140.359 1005.3 134 1006.11 127.688C1007.22 118.985 1007.5 110.886 1006.94 103.344C1006.39 95.8018 1005.23 89.1183 1003.46 83.2702C1002.84 81.1815 1002.17 79.2554 1001.47 77.5381C1000.01 73.8946 1002.7 69.9263 1006.62 69.9263H1019.67C1023.43 69.9263 1026.07 73.5697 1024.96 77.1668" fill="#FBCD67"/>
<path d="M566.16 136.065C566.16 132.979 566.949 130.217 568.525 127.804C570.102 125.367 572.12 123.232 574.531 121.352C576.966 119.496 579.633 117.895 582.554 116.549C585.476 115.203 588.305 114.065 591.064 113.137C593.824 112.209 596.282 111.466 598.484 110.886C600.664 110.329 602.241 109.911 603.215 109.679C603.934 109.424 604.467 109.099 604.792 108.635C605.116 108.194 605.209 107.776 605.093 107.359C604.977 106.964 604.629 106.639 604.05 106.384C603.493 106.152 602.635 106.059 601.499 106.152C597.371 106.477 592.966 107.359 588.305 108.774C583.644 110.19 579.122 111.954 574.763 114.065C571.354 115.527 569.059 115.922 567.83 115.272C566.624 114.622 565.998 112.603 565.998 109.192V87.6793C565.998 83.2932 565.488 79.7658 564.491 77.0506C564.305 76.5633 564.12 76.0992 563.888 75.635C562.566 72.8734 564.491 69.6941 567.528 69.6941H581.859C584.919 69.6941 586.821 72.8966 585.499 75.635C585.267 76.0992 585.082 76.5633 584.896 77.0506C583.876 79.7658 583.389 83.3165 583.389 87.6793V99.7236C583.389 101.673 583.992 102.741 585.221 102.949C586.427 103.158 587.887 103.042 589.603 102.648C596.884 101.046 602.566 100.489 606.6 100.977C607.899 101.139 609.058 100.118 609.058 98.7954V87.7025C609.058 83.3165 608.548 79.789 607.551 77.0738C607.365 76.5865 607.18 76.1224 606.948 75.6582C605.626 72.8966 607.551 69.7173 610.589 69.7173H626.125C629.185 69.7173 631.087 72.9198 629.765 75.6582C629.533 76.1224 629.348 76.5865 629.162 77.0738C628.142 79.789 627.655 83.3397 627.655 87.7025V136.089C627.655 140.475 628.165 144.002 629.162 146.717C629.348 147.205 629.533 147.669 629.765 148.133C631.087 150.895 629.162 154.074 626.125 154.074H610.705C607.644 154.074 605.742 150.871 607.064 148.133C607.296 147.669 607.481 147.205 607.667 146.717C608.687 144.002 609.174 140.451 609.174 136.089V116.641C609.174 115.156 607.736 114.112 606.322 114.53H606.252C602.844 115.597 599.76 116.781 596.954 118.08C594.148 119.38 591.737 120.842 589.719 122.466C587.702 124.091 586.125 125.947 585.035 128.059C583.945 130.171 583.389 132.561 583.389 135.23V136.089C583.389 140.475 583.899 144.002 584.896 146.717C585.082 147.205 585.267 147.669 585.499 148.133C586.821 150.895 584.896 154.074 581.859 154.074H567.644C564.583 154.074 562.682 150.871 564.004 148.133C564.236 147.669 564.421 147.205 564.607 146.717C565.627 144.002 566.114 140.451 566.114 136.089L566.16 136.065Z" fill="#FBCD67"/>
<path d="M787.212 143.561C787.885 139.523 788.232 134.371 788.232 128.105V95.6392C788.232 89.3966 787.885 84.2447 787.212 80.1835C787.096 79.4641 786.911 78.6751 786.702 77.8628C785.635 73.7552 788.789 69.7869 793.009 69.7869H812.023C815.386 69.7869 817.078 72.1075 817.078 76.7489C817.078 79.5569 816.522 82.1097 815.386 84.3839C814.273 86.6582 812.835 88.77 811.119 90.6962C809.403 92.6223 807.548 94.4324 805.6 96.1033C803.629 97.7974 801.797 99.4451 800.082 101.093C798.366 102.74 796.928 104.458 795.815 106.268C794.771 107.939 794.215 109.749 794.145 111.652C794.076 113.207 794.54 114.785 795.56 115.945C796.719 117.291 798.18 117.987 799.896 117.987C802.702 117.987 805.508 116.618 808.313 113.903C811.119 111.188 813.647 107.637 815.873 103.274C818.122 98.9113 819.931 94.0147 821.345 88.6075C822.736 83.2004 823.455 77.8396 823.455 72.5485C823.455 70.7151 824.22 69.7869 825.728 69.7869H846.62C847.571 69.7869 848.359 70.1118 848.962 70.7383C849.565 71.3881 849.31 72.827 848.174 75.0548C844.742 81.7848 840.336 88.3291 834.956 94.6413C829.6 100.977 823.548 107.15 816.823 113.16C815.223 114.529 814.667 115.597 815.131 116.409C815.618 117.221 816.777 117.245 818.609 116.525L824.383 114.251C826.701 113.369 828.881 113.253 830.922 113.88C832.962 114.529 834.539 115.875 835.675 117.964L842.4 130.589C846.249 137.806 849.217 143.167 851.35 146.694C852.069 147.901 852.858 149.131 853.553 150.221C854.573 151.823 853.437 153.911 851.536 153.911H834.725C831.687 153.911 829.136 153.146 827.096 151.637C825.055 150.105 823.223 147.831 821.623 144.791C820.255 142.308 818.864 139.732 817.426 137.11C815.989 134.487 814.551 132.074 813.113 129.962C811.676 127.85 810.238 126.086 808.847 124.74C807.455 123.371 806.11 122.698 804.812 122.698C803.699 122.698 802.771 123.371 802.053 124.74C801.334 126.11 800.963 127.734 800.963 129.66C800.963 132.468 802.053 135.23 804.255 137.945C806.458 140.66 809.913 144.072 814.644 148.156C816.475 149.757 817.287 151.127 817.055 152.24C816.823 153.354 815.849 153.935 814.18 153.935H793.009C788.789 153.935 785.635 149.943 786.702 145.859C786.911 145.046 787.096 144.257 787.212 143.538V143.561Z" fill="#FBCD67"/>
<path d="M878.62 144.513C879.292 140.475 879.64 135.323 879.64 129.057V80.6246C879.64 79.2554 879.408 78.3735 878.967 77.979C878.527 77.5845 877.738 77.4685 876.625 77.6077C875.35 77.8398 873.866 78.652 872.173 80.0212C870.481 81.3904 868.765 83.1541 867.002 85.3124C865.24 87.4706 863.501 89.9305 861.785 92.7153C860.069 95.4769 858.492 98.4242 857.032 101.557C856.637 102.509 856.011 102.81 855.176 102.462C854.342 102.091 853.924 101.371 853.924 100.234V76.9347C853.924 73.5233 856.684 70.7617 860.092 70.7617H918.735C922.144 70.7617 924.903 73.5233 924.903 76.9347V100.211C924.903 101.325 924.486 102.068 923.651 102.439C922.816 102.81 922.19 102.509 921.796 101.534C920.358 98.401 918.781 95.4537 917.042 92.6921C915.326 89.9305 913.587 87.4706 911.825 85.2891C910.063 83.1309 908.347 81.3672 906.654 79.998C904.961 78.6288 903.5 77.8398 902.202 77.5845C901.089 77.4221 900.3 77.5381 899.86 77.9558C899.419 78.3503 899.211 79.2322 899.211 80.6014V129.057C899.211 135.3 899.558 140.452 900.231 144.513C900.37 145.325 900.579 146.23 900.834 147.158C901.877 151.057 899.025 154.933 894.967 154.933H883.883C879.849 154.933 876.973 151.08 878.017 147.158C878.272 146.23 878.48 145.325 878.62 144.513Z" fill="#FBCD67"/>
</g>
<path d="M676.374 560.268C675.223 553.532 674.386 548.691 672.773 544.912C665.59 528.074 642.294 530.871 638.091 516.3C636.83 511.924 637.171 505.576 640.406 503.457C642.07 502.368 647.017 500.748 688.022 531.116C696.126 537.118 695.911 537.166 697.999 538.371C713.505 547.321 735.173 550.346 752.415 541.998C755.538 540.486 753.507 541.02 766.473 531.569C797.284 509.11 803.715 509.712 807.124 510.983C811.785 512.721 816.669 517.905 815.901 522.046C814.094 531.794 782.663 526.691 769.929 545.501C766.383 550.739 764.235 556.434 764.988 558.405C765.52 559.795 762.735 572.815 768.74 577.267C773.654 580.91 782.123 577.518 790.507 573.286C827.098 554.813 841.109 530.926 849.458 534.743C854.797 537.184 856.914 550.536 852.179 559.228C844.358 573.589 818.899 573.287 807.555 588.048C807.061 588.69 804.886 591.639 802.975 596.004C801.322 599.778 796.775 610.163 800.655 616.871C804.049 622.737 812.624 623.604 815.582 623.903C840.96 626.468 863.44 591.336 904.328 569.204C911.906 565.102 965.244 536.23 1000.92 557.938C1013.01 565.297 1024.44 580.393 1023.99 593.377C1023.55 605.753 1012.59 619.227 983.587 635.168C980.173 637.045 977.824 640.417 977.287 644.276C976.052 653.154 976.457 658.315 974.705 667.355C973.409 674.043 970.362 678.46 966.907 683.468C963.094 688.996 951.919 702.237 889.362 717.831C879.311 720.335 868.069 722.958 867.88 725.72C867.498 731.295 889.363 737.297 907.476 741.302C920.229 744.122 916.924 763.091 903.962 761.49C903.634 761.449 903.302 761.406 902.966 761.361C869.409 756.827 847.443 761.35 828.281 739.597C810.051 718.902 842.606 824.583 845.818 834.917C845.953 835.354 845.953 835.412 846 835.582C851.144 854.471 861.751 893.421 846.131 907.013C845.255 907.775 837.827 914.07 830.871 911.902C816.609 907.455 819.873 872.275 800.784 825.395C797.446 817.198 793.377 808.525 790.505 809.072C787.647 809.615 787.613 818.972 786.877 825.395C784.488 846.238 770.941 869.101 753.32 880.162C730.487 894.495 699.293 889.97 678.95 877.086C651.477 859.688 644.054 827.205 642.671 820.308C640.896 811.447 641.19 805.343 639.856 805.267C635.266 805.004 626.866 877.048 629.278 891.688C629.396 892.405 629.91 895.23 629.37 898.851C629.255 899.631 628.101 906.808 623.324 911.245C617.523 916.634 607.324 917.1 601.946 914.355C593.837 910.218 589.667 895.206 596.883 844.646C600.475 819.481 606.999 784.718 619.84 743.398C620.389 741.631 618.49 740.105 616.884 741.023C616.864 741.034 616.845 741.045 616.825 741.056C583.13 760.305 552.083 778.04 539.725 768.303C535.594 765.048 533.534 758.708 535.2 754.659C538.216 747.332 552.03 750.926 570.571 742.87C578.55 739.404 594.304 730.782 593.245 723.826C592.454 718.629 582.756 717.506 552.432 709.898C518.669 701.427 507.614 697.031 497.108 688.912C489.548 683.071 483.875 678.687 481.236 670.775C478.7 663.173 480.385 656.575 475.248 647.029C473.486 643.754 472.31 640.478 469.615 639.131C453.97 631.306 409.341 606.459 416.843 580.927C419.136 573.125 422.877 566.135 428.947 560.926C457.306 536.587 524.305 559.439 566.489 586.336C596.091 605.21 626.125 630.823 636.778 622.71C638.776 621.187 641.808 617.159 642.673 612.281C643.633 606.867 641.612 602.161 638.047 594.126C636.623 590.917 634.723 586.635 632.319 583.179C621.868 568.162 605.057 573.312 595.511 560.588C588.697 551.507 588.703 537.474 593.303 534.535C598.379 531.291 610.586 540.581 623.173 550.16C631.738 556.677 630.955 556.955 636.778 561.041C651.419 571.317 672.295 579.756 677.137 574.19C678.488 572.637 677.783 568.514 676.373 560.266L676.374 560.268Z" fill="#A94421"/>
<path d="M833.122 701.092C831.73 700.487 831.161 700.826 829.653 699.954C829.302 699.75 828.681 699.276 827.436 698.328C826.418 697.552 825.902 697.157 825.58 696.854C824.878 696.19 824.106 695.459 823.692 694.413C822.619 691.708 824.64 688.691 825.106 688.01C825.145 687.954 825.183 687.898 825.222 687.842L827.586 684.74C827.618 684.7 827.65 684.664 827.681 684.625C828.607 683.578 829.558 682.627 830.319 681.858L830.649 681.525C840.153 671.951 856.059 655.927 853.779 644.053C852.614 637.979 846.489 632.083 841.483 630.103C838.953 629.102 836.81 629.086 835.28 630.057C832.694 631.695 831.196 633.426 830.691 635.347C829.8 638.753 831.488 641.263 833.445 644.172C834.698 646.031 836.115 648.136 837.069 650.801C837.434 651.815 837.715 652.868 837.904 653.934C837.971 654.305 838.027 654.684 838.073 655.082C839.023 666.318 827.422 677.13 820.493 683.588C819.851 684.187 819.247 684.75 818.704 685.266C817.427 686.48 814.767 689.007 811.873 688.586C810.463 688.382 808.396 687.372 806.572 683.73C804.793 680.18 804.744 675.958 809.428 662.784C809.463 662.689 809.505 662.597 809.554 662.508C811.606 658.793 814.213 652.963 817.318 645.162C817.332 645.126 817.346 645.086 817.356 645.05C820.114 636.499 815.399 631.267 815.399 631.267C813.627 629.191 812.178 629.014 811.852 628.681C810.666 627.464 804.358 625.871 792.055 628.168C788.887 628.76 784.996 629.826 777.215 631.965C771.251 633.603 771.819 633.475 768.992 634.255C760.982 636.456 754.397 636.788 750.443 635.186C750.405 635.17 750.335 635.15 750.236 635.123C749.987 635.054 749.528 634.926 749.002 634.646C746.581 633.357 744.129 632.728 741.897 632.827H741.852C741.031 632.87 740.255 633.014 739.564 633.251C733.99 634.814 724.714 640.631 717.01 647.393C712.351 651.479 708.141 656.066 704.482 661.031C704.152 661.478 703.633 661.8 703.054 661.83C702.822 661.843 702.629 661.804 702.475 661.718C701.058 660.919 702.384 655.96 703.447 651.976C703.738 650.884 704.015 649.854 704.243 648.893C704.608 647.36 704.955 646.267 705.261 645.3C705.825 643.517 706.201 642.339 706.053 640.21C705.952 638.746 705.762 636.018 703.745 633.909C703.636 633.798 701.068 631.162 697.693 631.731C694.795 632.221 692.817 634.722 692.003 636.713C690.568 640.217 692.15 643.309 693.985 646.889C697.181 653.137 697.318 656.806 697.423 660.221C697.581 665.331 695.988 669.309 694.978 671.836C693.901 674.524 692.55 677.906 689.242 681.311C685.846 684.812 682.085 686.589 679.822 687.458C679.822 687.458 671.36 691.087 661.158 687.148C660.369 686.842 658.446 685.984 657.022 684C655.913 682.46 655.615 680.949 655.521 680.157C655.394 679.114 655.289 677.663 655.384 675.932C655.478 674.211 655.556 672.79 656.142 671.197C656.531 670.135 657.717 667.029 660.986 665.403C663.681 664.064 666.354 664.406 667.361 664.535C667.835 664.594 669.09 664.755 673.455 666.858C675.581 667.881 676.7 668.526 677.598 669.042C678.573 669.605 679.282 670.01 680.675 670.529C683.38 671.539 687.084 672.925 689.123 671.293C690.786 669.963 690.459 667.384 690.336 666.413C690.038 664.061 688.688 661.748 686.53 659.902C682.86 656.763 676.426 655.266 669.326 655.895C662.912 656.464 657.411 658.714 654.97 661.771C654.479 662.386 653.777 663.08 653.244 662.909C652.724 662.741 651.048 661.235 651.286 648.857C651.356 645.264 653.802 642.174 657.11 641.513C661.193 640.697 667.256 640.473 672.957 644.05C677.921 647.162 681.569 648.281 684.116 647.472C686.334 646.764 687.333 644.691 687.954 642.964C688.649 641.029 688.421 638.124 686.337 635.989C684.576 634.186 680.955 632.379 673.69 634.028C667.094 635.522 661.783 636.347 657.457 636.548L657.285 636.522C656.331 636.384 655.022 636.196 653.409 635.202C652.605 634.709 652.205 634.314 651.823 633.929C651.398 633.508 650.998 633.11 650.153 632.656C647.834 631.415 645.497 631.547 643.954 631.633L643.863 631.639C641.789 631.754 637.478 631.991 634.896 634.903C630.924 639.378 633.857 647.077 634.85 649.331C635.018 649.712 635.211 650.077 635.443 650.449C636.397 651.979 641.024 659.892 638.593 665.515C637.502 668.039 635.113 669.799 631.5 670.743C626.725 671.99 623.371 671.743 621.529 670.013C619.007 667.644 620.108 663.143 620.273 662.531C620.287 662.491 620.298 662.452 620.312 662.412C620.778 661.09 627.051 642.915 621.989 636.653C620.782 635.163 619.028 634.459 616.768 634.564C613.25 634.729 610.639 635.824 609.015 637.828C606.286 641.187 607.103 646.215 607.58 648.218C607.843 649.327 608.026 650.275 608.156 650.966C608.25 651.469 608.32 651.834 608.38 652.035C609.619 656.237 610.068 661.708 609.713 668.299C609.654 669.378 609.39 670.411 608.924 671.372C607.963 673.362 607.072 675.415 606.275 677.475C602.374 687.573 598.185 704.652 603.535 707.508C604.577 708.064 605.917 708.123 607.524 707.682C607.959 707.62 612.643 706.85 616.084 702.727C619.042 699.184 619.515 693.725 617.351 688.129C615.814 684.148 617.526 679.706 621.336 677.797C624.157 676.383 627.212 676.096 629.714 677.008C630.633 677.343 631.489 677.847 632.261 678.505C634.432 680.357 635.436 683.269 634.874 686.102C634.12 689.925 633.026 696.927 634.197 700.868C635.267 704.474 638.323 707.65 641.54 708.541C641.702 708.587 641.856 708.65 642 708.729C644.049 709.834 646.841 709.716 650.977 708.354C652.012 708.015 653.63 707.571 655.51 706.508C658.355 704.899 658.773 703.675 660.758 702.267C664.677 699.48 669.49 699.664 670.589 699.707C675.654 699.901 679.156 702.273 680.405 703.214L680.492 703.287C682.425 704.889 683.573 705.843 683.878 706.113C683.916 706.152 683.951 706.189 683.99 706.225C684.362 706.639 684.839 707.005 685.4 707.314L685.544 707.393C685.618 707.429 685.723 707.482 685.856 707.544L685.92 707.574C686.19 707.696 686.614 707.867 687.098 707.988L687.281 708.034C690.849 708.933 695.171 707.949 697.792 705.646C701.079 702.757 701.047 698.486 700.959 697.246C700.788 694.795 699.774 693.554 698.7 692.241C697.735 691.064 696.739 689.846 696.223 687.573C694.673 680.762 698.869 674.586 700.447 672.263C701.837 670.217 702.693 669.44 703.521 669.493C704.941 669.585 705.766 672.283 707.011 676.37C708.064 679.821 709.376 684.118 711.656 689.076C714.41 695.071 716.894 699.128 721.434 702.132C728.727 706.959 739.571 707.126 746.521 704.807C746.57 704.794 746.619 704.777 746.669 704.764C749.468 704.083 751.061 703.356 752.345 702.773C753.657 702.175 754.695 701.704 756.499 701.49C760.435 701.026 763.038 702.339 766.336 704.001C767.75 704.715 769.213 705.452 770.939 706.123C775.166 707.775 780 708.765 784.568 708.916C784.656 708.916 784.74 708.929 784.824 708.943C786.775 709.285 790.027 709.209 793.069 708.275C794.518 707.83 795.598 707.284 796.738 706.709C798.201 705.968 799.861 705.133 802.713 704.294C803.162 704.162 804.383 703.82 806.007 703.481C810.459 702.553 815.683 701.701 821.335 703.366C822.591 703.734 823.745 704.149 825.015 705.09C827.292 706.771 827.057 708.153 828.958 709.196C830.404 709.989 832.951 710.515 834.842 709.196C836.304 708.176 836.95 706.35 836.638 704.761C836.171 702.405 833.607 701.303 833.122 701.092ZM647.431 681.69C647.378 681.917 647.308 682.127 647.217 682.328C647.027 682.746 646.89 683.049 646.606 683.2C646.094 683.476 645.357 683.167 645.041 682.966C644.547 682.651 644.326 682.167 644.227 681.812C643.684 678.255 643.901 673.665 644.873 668.183C644.947 667.861 645.055 667.568 645.21 667.289C645.431 666.884 645.592 666.594 645.887 666.463C646.42 666.223 647.129 666.581 647.431 666.805C647.648 666.966 647.823 667.173 647.953 667.423C648.325 671.947 648.139 677.011 647.434 681.696L647.431 681.69ZM742.655 685.543C739.28 688.718 734.456 689.899 728.313 689.06C723.391 688.385 719.69 686.461 717.315 683.341C713.982 678.962 713.179 672.306 714.929 663.551C716.669 654.858 726.745 648.6 734.825 648.6C735.551 648.6 736.26 648.65 736.947 648.755L737.014 648.765C739.848 649.209 742.332 650.811 743.83 653.164C745.946 656.493 747.318 660.057 747.907 663.748C748.773 669.194 748.644 679.913 742.659 685.546L742.655 685.543ZM787.764 697.628C784.968 699.753 780.548 700.632 775.941 699.97C770.669 699.217 765.992 696.614 763.427 693.005C760.435 688.793 760.923 684.253 761.144 682.963C761.954 678.219 765.473 673.652 770.553 670.74C774.657 668.387 778.945 667.631 782.312 668.661C786.884 670.059 790.68 675.234 791.985 681.844C793.027 687.132 792.465 694.051 787.761 697.628H787.764ZM775.85 662.199C776.085 661.86 776.236 661.633 776.331 661.491C776.229 661.659 776.068 661.909 775.85 662.199ZM803.699 659.155C803.636 659.734 803.516 660.81 802.759 661.926C802.302 662.597 801.825 663.005 801.685 663.123C801.054 663.465 800.026 663.929 798.675 664.12C798.675 664.12 797.85 664.275 797.096 664.202C795.724 664.071 793.848 663.271 790.936 660.201C788.466 657.599 785.922 656.411 783.379 656.674C780.246 656.997 777.843 659.445 776.471 661.258C776.471 661.258 776.464 661.264 776.454 661.281C776.106 661.741 775.826 662.156 775.619 662.485C775.159 663.044 774.507 663.686 773.651 664.183C772.861 664.64 772.124 664.795 770.654 665.104C770.511 665.133 767.195 665.811 764.954 665.239C764.031 665.002 763.171 664.66 762.326 664.189C761.579 663.505 760.702 662.574 759.884 661.369C759.246 660.432 758.79 659.54 758.463 658.777C758.112 657.898 756.481 653.549 758.747 648.778C761.344 643.309 766.953 641.697 767.76 641.48C769.363 640.924 771.84 640.269 774.892 640.299C776.973 640.319 778.618 640.69 781.828 641.431C785.663 642.316 787.582 642.757 789.866 643.757C793.255 645.241 795.454 646.972 797.556 648.623C799.727 650.331 800.832 651.216 801.878 652.805C802.292 653.437 804.018 656.178 803.702 659.152L803.699 659.155Z" fill="#FDCE65"/>
</g>
<defs>
<clipPath id="clip0_44_171">
<rect width="1440" height="771" fill="white"/>
</clipPath>
<clipPath id="clip1_44_171">
<rect width="613" height="88" fill="white" transform="translate(414 68)"/>
</clipPath>
</defs>
</svg>
