<svg width="161" height="243" viewBox="0 0 161 243" fill="none" xmlns="http://www.w3.org/2000/svg">
<path d="M7.1626 54.7089C20.1363 57.2133 34.5392 59.314 50.219 60.5545C91.4772 63.8313 127.159 60.0688 154.237 55.0658C149.27 112.527 144.298 169.983 139.331 227.444C139.331 227.444 78.7788 253.044 23.4222 228.012C17.3717 173.119 7.1626 54.7089 7.1626 54.7089Z" fill="#F5F5F5"/>
<mask id="mask0_2001_3" style="mask-type:luminance" maskUnits="userSpaceOnUse" x="7" y="54" width="148" height="185">
<path d="M7.1626 54.7089C20.1363 57.2133 34.5392 59.314 50.219 60.5545C91.4772 63.8313 127.159 60.0688 154.237 55.0658C149.27 112.527 144.298 169.983 139.331 227.444C139.331 227.444 78.7788 253.044 23.4222 228.012C17.3717 173.119 7.1626 54.7089 7.1626 54.7089Z" fill="white"/>
</mask>
<g mask="url(#mask0_2001_3)">
<path d="M234.876 35.908L-73.6609 37.4143L-72.6344 247.251L235.902 245.745L234.876 35.908Z" fill="#F5F5F5"/>
<path d="M234.876 35.9137L-72.9346 37.4165L-71.9081 247.253L235.902 245.751L234.876 35.9137Z" fill="#F5F5F5"/>
<mask id="mask1_2001_3" style="mask-type:luminance" maskUnits="userSpaceOnUse" x="-73" y="35" width="309" height="213">
<path d="M234.876 35.9137L-72.9346 37.4165L-71.9081 247.253L235.902 245.751L234.876 35.9137Z" fill="white"/>
</mask>
<g mask="url(#mask1_2001_3)">
<path d="M39.2129 64.1238L29.5368 79.7589L10.0264 79.8584L0.192139 64.3169L9.87411 48.6818L29.3845 48.5881L39.2129 64.1238Z" fill="#F5F5F5"/>
<path d="M39.3655 95.3707L29.6894 111.006L10.179 111.099L0.344727 95.5638L10.0267 79.9287L29.5371 79.8351L39.3655 95.3707Z" fill="#F5F5F5"/>
<path d="M39.5235 127.922L29.8473 143.557L10.337 143.657L0.508545 128.115L10.1847 112.48L29.695 112.387L39.5235 127.922Z" fill="#F5F5F5"/>
<path d="M80.2254 63.9249L70.5492 79.56L51.0388 79.6536L41.2046 64.118L50.8866 48.4829L70.397 48.3834L80.2254 63.9249Z" fill="#F5F5F5"/>
<path d="M80.3774 95.1717L70.7013 110.807L51.191 110.9L41.3625 95.3648L51.0387 79.7297L70.549 79.6302L80.3774 95.1717Z" fill="#F5F5F5"/>
<path d="M80.5359 127.723L70.8598 143.358L51.3494 143.452L41.521 127.916L51.1971 112.281L70.7075 112.182L80.5359 127.723Z" fill="#F5F5F5"/>
<path d="M121.238 63.7259L111.561 79.3611L92.0511 79.4547L82.2227 63.919L91.8988 48.2839L111.409 48.1844L121.238 63.7259Z" fill="#F5F5F5"/>
<path d="M121.39 94.9728L111.714 110.608L92.2034 110.701L82.375 95.16L92.0511 79.5249L111.562 79.4313L121.39 94.9728Z" fill="#F5F5F5"/>
<path d="M121.548 127.525L111.872 143.16L92.3614 143.253L82.533 127.718L92.2091 112.083L111.719 111.983L121.548 127.525Z" fill="#F5F5F5"/>
<path d="M162.25 63.5271L152.574 79.1622L133.063 79.2558L123.235 63.7143L132.911 48.0792L152.421 47.9856L162.25 63.5271Z" fill="#F5F5F5"/>
<path d="M162.402 94.7738L152.726 110.409L133.216 110.503L123.387 94.961L133.063 79.3259L152.574 79.2323L162.402 94.7738Z" fill="#F5F5F5"/>
<path d="M162.56 127.325L152.884 142.961L133.374 143.054L123.545 127.513L133.221 111.878L152.732 111.784L162.56 127.325Z" fill="#F5F5F5"/>
<path d="M39.4475 160.275L29.7655 175.91L10.261 176.004L0.426758 160.462L10.1087 144.827L29.6133 144.734L39.4475 160.275Z" fill="#F5F5F5"/>
<path d="M39.5996 191.522L29.9176 207.157L10.4131 207.251L0.578857 191.709L10.2608 176.074L29.7654 175.98L39.5996 191.522Z" fill="#F5F5F5"/>
<path d="M39.752 222.763L30.0759 238.398L10.5655 238.498L0.731201 222.956L10.4132 207.321L29.9236 207.227L39.752 222.763Z" fill="#F5F5F5"/>
<path d="M39.9043 254.01L30.2282 269.645L10.7178 269.744L0.883545 254.203L10.5655 238.568L30.0759 238.474L39.9043 254.01Z" fill="#F5F5F5"/>
<path d="M80.4595 160.076L70.7775 175.711L51.273 175.805L41.4387 160.263L51.1207 144.628L70.6252 144.535L80.4595 160.076Z" fill="#F5F5F5"/>
<path d="M80.6121 191.317L70.9359 206.952L51.4256 207.052L41.5913 191.51L51.2733 175.875L70.7837 175.781L80.6121 191.317Z" fill="#F5F5F5"/>
<path d="M80.7642 222.564L71.0881 238.199L51.5777 238.293L41.7434 222.757L51.4254 207.122L70.9358 207.028L80.7642 222.564Z" fill="#F5F5F5"/>
<path d="M80.9165 253.811L71.2404 269.446L51.73 269.539L41.9016 254.004L51.5777 238.369L71.0881 238.269L80.9165 253.811Z" fill="#F5F5F5"/>
<path d="M121.472 159.871L111.796 175.506L92.2854 175.606L82.4512 160.064L92.1331 144.429L111.644 144.336L121.472 159.871Z" fill="#F5F5F5"/>
<path d="M121.624 191.118L111.948 206.753L92.4378 206.847L82.6035 191.311L92.2855 175.676L111.796 175.583L121.624 191.118Z" fill="#F5F5F5"/>
<path d="M121.776 222.365L112.1 238L92.5899 238.094L82.7615 222.558L92.4376 206.923L111.948 206.823L121.776 222.365Z" fill="#F5F5F5"/>
<path d="M121.929 253.612L112.253 269.247L92.7422 269.341L82.9138 253.799L92.5899 238.164L112.1 238.07L121.929 253.612Z" fill="#F5F5F5"/>
<path d="M162.484 159.672L152.808 175.307L133.298 175.401L123.463 159.865L133.145 144.23L152.656 144.131L162.484 159.672Z" fill="#F5F5F5"/>
<path d="M162.636 190.919L152.96 206.554L133.45 206.648L123.621 191.112L133.297 175.477L152.808 175.378L162.636 190.919Z" fill="#F5F5F5"/>
<path d="M162.789 222.166L153.112 237.801L133.602 237.895L123.774 222.353L133.45 206.718L152.96 206.625L162.789 222.166Z" fill="#F5F5F5"/>
<path d="M162.941 253.413L153.265 269.048L133.754 269.142L123.926 253.6L133.602 237.965L153.113 237.871L162.941 253.413Z" fill="#F5F5F5"/>
</g>
</g>
<path d="M4.01172 17.3356C17.5126 20.3608 32.4954 22.8945 48.8136 24.4041C91.7411 28.3773 128.858 23.8834 157.02 17.8856C151.895 86.9797 146.77 156.068 141.65 225.162C141.65 225.162 78.6736 255.9 21.0679 225.753C14.7304 159.737 4.01172 17.3414 4.01172 17.3414V17.3356Z" stroke="#F5F5F5" stroke-width="7" stroke-linejoin="round"/>
<path d="M157.377 13.5555C157.377 8.78069 116.271 3.98249 80.8057 4.00005C45.4281 4.01175 3.99414 8.80995 4 13.6316C4 18.4824 45.9552 23.2689 82.0942 23.1285C116.605 22.9939 157.377 18.3127 157.383 13.5613L157.377 13.5555Z" stroke="#F5F5F5" stroke-width="7" stroke-linejoin="round"/>
</svg>
