<svg width="1436" height="2892" viewBox="0 0 1436 2892" fill="none" xmlns="http://www.w3.org/2000/svg">
<mask id="mask0_102_168" style="mask-type:alpha" maskUnits="userSpaceOnUse" x="0" y="0" width="1440" height="2892">
<rect x="0.000244141" width="1440" height="2892" fill="#D9D9D9"/>
</mask>
<g mask="url(#mask0_102_168)">
<rect x="-2.99951" width="1439" height="550" fill="#FDCE65"/>
<rect x="0.000244141" y="550" width="1439" height="2342" fill="#AA4421"/>
<path d="M1589.49 1045.92C1525.77 979.345 1413.77 1023.77 1412.41 1115.9C1410.41 1250.91 1382.87 1389.09 1282.95 1414.05C1163.02 1444.02 1169.55 1494.11 1195.6 1530.5C1214.6 1557.05 1245.49 1572.36 1278.15 1572.74C1314.62 1573.17 1365.83 1583.07 1365.83 1635.42C1365.83 1676.3 1421.03 1692.89 1475.94 1699.3C1534.49 1706.13 1586.6 1661.95 1590.02 1603.12L1617.86 1122.89C1619.51 1094.41 1609.24 1066.54 1589.53 1045.92H1589.49Z" fill="#75181A"/>
<path d="M509.833 3039.74C454.124 3018.86 429.004 2954.15 455.729 2900.89C512.727 2787.22 617.776 2624.38 726.91 2691.84C889.03 2792.07 957.458 2893.16 912.448 3050.25C880.811 3160.61 646.47 3090.95 509.858 3039.74H509.833Z" fill="#75181A"/>
<path d="M448.954 497.017C284.475 494.964 183.635 677.177 269.906 817.244C290.361 850.461 289.669 851.178 307.131 908.511C319.72 949.841 344.627 1031.66 323.628 1115.53C303.025 1197.75 257.762 1204.23 195.384 1333.56C175.473 1374.81 162.71 1410.16 155.191 1433.01C119.525 1535.68 84.0569 1685.42 157.17 1763.68C169.883 1777.28 178.812 1802.24 265.009 1815.42C464.091 1845.84 577.174 1888.58 612.148 1966.67C633.369 2014.08 620.903 2065.13 613.137 2093.9C590.976 2175.79 530.971 2218.95 508.711 2234.98C441.707 2283.18 373.615 2288.3 347.472 2289.94C302.407 2292.73 265.355 2285.53 241.215 2278.95C224.668 2278.88 140.969 2280.14 72.2095 2346.9C63.3795 2355.48 2.93017 2416.03 -0.631492 2511.65C-1.47244 2534.58 -3.27801 2582.71 25.5121 2627.92C83.4881 2719.04 211.559 2713.62 219.227 2713.18C325.508 2703.26 396.494 2670.59 440.916 2643.55C512.174 2600.19 528.77 2563.04 644.277 2491.49C703.489 2454.81 744.176 2436.68 794.51 2434.7C803.908 2434.33 857.704 2432.2 900.766 2454.86C1060.57 2538.9 1034.5 2944.04 1034.5 2944.04L1428.41 2934.89C1433.16 2911.49 1490.15 2606.2 1280.01 2409.08C1184.68 2319.64 1075.58 2291.12 1018 2280.83C848.8 2256.82 724.513 2282.56 638.761 2313.8C444.131 2384.74 283.362 2544.05 235.7 2502.52C224.767 2493 222.294 2475.12 222.17 2473.98C216.086 2426.17 286.231 2382.71 299.834 2374.28C363.771 2334.65 418.359 2337.4 475.716 2328.47C535.399 2319.2 619.691 2293.92 717.563 2220.38C734.357 2208.34 791.171 2164.41 812.837 2082.96C816.275 2070.05 836.755 1988.43 796.612 1913.02C765.101 1853.81 730.053 1796.33 545.342 1758.66C472.995 1743.92 317.766 1692.2 287.838 1603.08C254.844 1504.86 384.795 1380.63 418.111 1350.08C434.955 1334.08 459.169 1310.33 486.945 1280.33C581.7 1177.96 637.178 1117.98 670 1033.07C729.955 877.841 676.208 732.308 662.629 686.848C621.126 548.216 541.36 498.18 448.954 497.017Z" fill="#75181A"/>
<path d="M929.754 707.605C871.898 728.906 853.45 802.101 894.708 847.876C940.759 898.971 989.665 974.243 998.113 1070.04C1001.2 1104.9 1005.37 1152.28 981.195 1201.95C939.663 1287.27 862.286 1281.11 759.634 1371.06C745.73 1383.25 606.387 1507.36 636.159 1579.16C657.416 1630.42 745.638 1608.59 867.88 1673.77C936.832 1710.55 983.798 1757.51 1011.9 1790.18C1013.87 1792.47 1015.74 1794.84 1017.45 1797.33C1064.28 1864.98 1063.91 1904.02 1053.91 1927.44C1044.99 1948.38 1030.83 1951.12 955.828 2022.14C925.873 2050.5 911.968 2065.38 912.265 2085.5C912.699 2114.03 941.536 2134.79 945.988 2137.89C945.988 2137.89 991.446 2169.65 1211.2 2104.99C1211.2 2104.99 1672.91 1979.86 1591.74 2422.93C1520.78 2810.23 1621.7 2056.57 1648.23 1860.66C1653.68 1820.43 1630.85 1781.17 1592.65 1767.4C1591.47 1766.97 1590.26 1766.55 1589.02 1766.17C1514.55 1741.97 1421.83 1789.54 1373.58 1853.04C1323.76 1918.61 1337.83 1978.63 1292.39 1995.09C1263.56 2005.54 1220.97 1994.72 1202.76 1968.03C1163 1909.82 1273.74 1827.03 1246.73 1721.12C1224.45 1633.73 1123.69 1590.55 1108.05 1584.14C994.209 1537.47 891.169 1595.05 879.73 1568.91C872.081 1551.42 936.65 1503.34 1062.38 1403.18C1192.59 1299.46 1220.72 1283.83 1256.84 1236.25C1311.48 1164.24 1332.97 1086.87 1342.3 1029.54C1342.87 1026.09 1343.22 1022.6 1343.33 1019.11C1347.92 874.656 1260.11 745.801 1131.73 703.039C1065.86 681.099 994.734 683.633 929.754 707.582V707.605Z" fill="#75181A"/>
<path d="M1438.97 917.499C1438.15 922.105 1438.03 926.983 1436.42 931.286C1433.18 940.043 1430.85 949.952 1425.09 956.8C1412.63 971.618 1400.18 969.254 1388.75 954.134C1373.78 934.316 1371.84 911.045 1374.57 887.349C1376.5 870.44 1380.08 853.744 1382.17 836.866C1383.96 822.139 1385.2 807.292 1385.72 792.474C1386.63 766.718 1387.78 740.87 1387.02 715.144C1386.48 696.175 1382.17 677.6 1369.99 661.965C1361.99 651.723 1351.86 643.723 1339.23 641.451C1325.38 638.996 1311.71 641.117 1299.76 650.268C1282.46 663.54 1274.43 681.54 1269.91 702.296C1265.36 723.144 1266.91 743.688 1269.82 764.354C1271.82 778.657 1273.97 792.929 1276.34 807.17C1278.15 818.261 1281.22 829.2 1282.22 840.351C1283.46 854.411 1284 868.592 1275.82 881.501C1267.67 894.379 1251.7 894.833 1243.33 882.167C1232.72 866.107 1231.48 848.563 1234.48 830.23C1234.57 829.685 1234.72 829.139 1234.75 828.563C1235.42 816.685 1235.6 804.716 1236.94 792.898C1238 783.565 1238.6 774.505 1236.88 765.142C1234.27 751.021 1229 738.81 1216.14 731.174C1201.6 722.538 1183.99 725.417 1170.35 735.386C1150.59 749.809 1137.77 769.142 1129.1 791.353C1125.61 800.262 1124.74 810.201 1122.7 819.655C1118.49 839.29 1120.79 859.138 1121.16 878.864C1121.37 890.167 1123.67 901.469 1125.07 912.742C1126.25 922.468 1127.31 932.256 1128.74 941.952C1130.1 951.255 1131.92 960.497 1133.43 969.8C1134.13 973.981 1134.92 978.163 1135.1 982.375C1135.8 999.162 1139.13 1015.8 1135.59 1032.83C1132.19 1049.16 1114.98 1067.55 1093.58 1066.01C1081.33 1065.13 1073.15 1060.46 1066.63 1050.4C1059 1038.61 1055.57 1026.31 1055.57 1012.13C1055.57 992.465 1059.24 973.496 1063.09 954.437C1066.27 938.71 1068.97 922.862 1071.64 907.015C1075.06 886.652 1077.18 866.168 1077.21 845.502C1077.21 828.2 1077.24 810.898 1076.85 793.595C1076.67 785.262 1076.03 776.838 1074.61 768.627C1073.51 762.324 1073.45 755.536 1068 750.446C1058.39 741.507 1054.48 742.688 1044.75 747.537C1023.84 757.991 1010.93 775.293 1002.23 796.565C995.956 811.928 993.561 827.927 991.107 844.199C984.105 890.652 986.803 937.377 986.136 983.981C985.984 994.859 988.136 1005.77 989.167 1016.65C989.925 1024.59 990.531 1032.55 991.319 1040.49C992.47 1051.86 993.41 1063.28 995.016 1074.58C996.592 1085.73 999.411 1096.7 1000.68 1107.85C1002.9 1127.16 1005.35 1146.52 1005.75 1165.88C1006.08 1181.7 1003.75 1197.67 995.683 1211.97C989.621 1222.73 981.408 1231.3 969.073 1234.3C949.251 1239.12 932.187 1233.52 918.64 1218.49C903.758 1201.97 896.848 1182.37 896.848 1160.03C896.848 1142.28 897.909 1124.73 900.364 1107.13C902.819 1089.31 903.819 1071.28 905.153 1053.31C906.971 1028.52 908.911 1003.71 910.002 978.89C910.487 967.588 909.153 956.164 908.487 944.801C908.032 936.831 907.547 928.862 906.577 920.923C905.698 913.772 904.728 906.56 902.819 899.651C898.606 884.409 895.151 868.774 888.938 854.35C877.724 828.291 859.478 807.867 833.171 795.959C820.169 790.08 806.197 788.111 791.952 790.05C778.798 791.838 765.766 795.08 752.582 796.05C734.063 797.444 715.636 796.504 699.997 784.202C691.662 777.657 686.783 768.566 682.782 759.142C677.478 746.749 675.356 733.689 676.144 720.114C676.872 707.478 676.538 694.751 677.781 682.176C678.963 670.207 681.964 658.45 683.388 646.481C684.267 639.117 684.176 631.512 683.479 624.088C682.964 618.724 676.023 613.937 670.386 613.634C662.627 613.209 655.474 616.785 653.11 622.391C649.352 631.299 647.715 640.602 646.564 650.208C645.048 662.844 643.533 675.752 639.714 687.812C634.744 703.448 620.802 710.023 604.799 703.145C601.374 701.66 598.616 697.721 596.495 694.357C588.493 681.721 585.129 667.874 584.584 652.844C584.25 644.056 584.371 634.39 577.885 626.966C570.49 618.512 560.489 619.997 555.912 630.178C552.033 638.814 550.093 647.874 549.244 657.359C548.002 671.207 546.153 684.994 544.092 698.721C543.061 705.599 541.455 712.478 539.303 719.083C536.363 728.113 530.271 731.871 520.967 732.143C515.39 732.295 512.45 728.568 509.722 724.962C503.146 716.296 499.418 706.296 496.993 695.751C493.326 679.843 489.84 663.843 485.718 648.056C482.839 637.117 479.051 626.542 469.534 618.967C462.533 613.391 453.107 614.967 442.287 615.664C439.65 615.846 430.073 616.664 418.313 621.118C412.13 623.451 403.068 627.663 393.551 635.269C379.185 650.844 374.275 664.995 372.305 674.176C371.123 679.752 372.336 677.328 370.547 711.326C369.638 728.628 369.093 733.174 370.547 741.385C372.457 752.203 377.852 780.869 377.306 793.353C376.761 806.231 376.579 815.625 377.761 834.29C378.822 850.956 381.277 867.531 382.489 884.197C383.853 903.075 385.338 922.044 385.247 940.952C385.186 955.8 381.64 970.436 372.699 982.769C364.456 994.162 347.059 995.344 337.997 983.587C329.419 972.466 322.903 960.194 322.054 945.71C321.418 934.771 320.024 923.711 320.782 912.863C321.57 901.681 324.6 890.682 326.57 879.591C327.298 875.44 327.965 871.259 328.449 867.047C330.116 852.108 331.692 837.169 333.268 822.23C333.359 821.503 333.359 820.746 333.359 819.988C333.572 796.989 333.784 773.99 333.966 750.991C334.087 735.174 332.48 719.296 326.692 704.781C318.387 683.933 299.808 665.631 273.652 666.904C261.165 667.51 250.224 672.055 240.798 680.934C225.493 695.327 219.007 713.508 215.824 733.537C213.157 750.294 213.551 767.051 215.764 783.717C218.007 800.322 221.128 816.806 223.674 833.351C226.038 848.684 228.948 864.016 230.039 879.47C230.918 892.076 227.584 904.499 217.37 913.045C207.156 921.59 196.579 918.65 189.305 907.196C183.334 897.773 179.697 887.076 179.424 875.834C179.212 866.744 180.485 857.653 181.122 848.532C182.213 832.957 184.183 817.382 184.031 801.807C183.94 792.444 181.728 782.626 178.273 773.899C173.939 763.081 163.937 757.445 153.359 753.021C141.479 748.052 131.204 752.567 121.839 758.657C97.3803 774.536 81.1048 796.928 73.649 825.048C70.2545 837.866 68.8906 851.229 67.2843 864.441C66.466 871.077 66.8903 877.925 67.2843 884.652C67.9208 896.53 68.7997 908.408 69.8302 920.256C70.8304 931.68 71.8305 943.134 73.4065 954.497C75.1341 967.103 77.8012 979.617 79.4985 992.223C81.1048 1004.16 81.9837 1016.19 83.1658 1028.19C83.3476 1029.86 83.5901 1031.49 83.8325 1033.16C86.2875 1051.61 83.0748 1068.73 69.0119 1081.73C53.676 1095.95 29.2779 1098.04 14.9725 1079.31C6.63772 1068.37 2.00058 1055.67 1.48534 1041.77C0.87918 1024.59 4.39492 1007.92 7.75913 991.193C10.7596 976.163 13.4571 961.042 16.2454 945.982C19.8218 926.65 22.5798 907.227 22.6707 887.47C22.7617 863.956 24.2164 840.442 23.8527 816.928C23.6709 805.564 21.6403 794.02 18.761 782.99C16.5182 774.384 8.94114 770.536 0.000244141 770.111V550C479.657 550 959.313 550 1439 550V917.499H1438.97Z" fill="#FECE67"/>
</g>
<rect x="242" y="442" width="406" height="139" fill="#FBCD67"/>
<mask id="mask1_102_168" style="mask-type:luminance" maskUnits="userSpaceOnUse" x="-238" y="-426" width="1847" height="1662">
<path d="M1608.01 662.145L1161.66 -426L-237 147.729L209.356 1235.87L1608.01 662.145Z" fill="white"/>
</mask>
<g mask="url(#mask1_102_168)">
<path d="M-57.0735 345.299L-109.897 304.48C-121.354 295.633 -127.216 281.342 -125.272 266.998L-116.33 200.843C-114.386 186.499 -104.952 174.288 -91.5636 168.796L-29.8083 143.464C-16.4195 137.972 -1.11723 140.036 10.3279 148.888L63.1517 189.707C74.6081 198.554 80.4703 212.845 78.5267 227.189L69.5839 293.345C67.6403 307.688 58.2069 319.899 44.8181 325.391L-16.9372 350.723C-30.3259 356.215 -45.6284 354.151 -57.0735 345.299Z" stroke="#AA4421" stroke-width="5" stroke-miterlimit="10"/>
<path d="M-143.859 133.73L-196.683 92.9104C-208.139 84.0634 -214.002 69.7723 -212.058 55.4286L-203.115 -10.7271C-201.172 -25.0708 -191.738 -37.2817 -178.349 -42.7738L-116.594 -68.1058C-103.205 -73.5978 -87.9029 -71.5335 -76.4577 -62.6819L-23.6339 -21.8628C-12.1775 -13.0158 -6.3153 1.27531 -8.25892 15.619L-17.2017 81.7747C-19.1453 96.1184 -28.5788 108.329 -41.9675 113.821L-103.723 139.153C-117.112 144.645 -132.414 142.581 -143.859 133.73Z" stroke="#AA4421" stroke-width="5" stroke-miterlimit="10"/>
<path d="M-11.1324 476.282L-4.33755 425.963C-2.86869 415.056 4.31956 405.756 14.505 401.578L61.4841 382.307C71.6695 378.129 83.3068 379.707 92.0233 386.436L132.196 417.488C140.901 424.222 145.357 435.084 143.888 445.992L137.093 496.31C135.625 507.217 128.436 516.517 118.251 520.695L71.2717 539.966C61.0864 544.144 49.4491 542.566 40.7326 535.837L0.559654 504.785C-8.1456 498.051 -12.6012 487.189 -11.1324 476.282Z" stroke="#AA4421" stroke-width="5" stroke-miterlimit="10"/>
<path d="M100.985 304.394L109.928 238.238C111.872 223.894 121.305 211.683 134.694 206.191L196.449 180.859C209.838 175.367 225.141 177.432 236.586 186.283L289.41 227.102C300.866 235.949 306.728 250.24 304.785 264.584L295.842 330.74C293.898 345.083 284.465 357.294 271.076 362.786L209.321 388.118C195.932 393.611 180.629 391.546 169.184 382.695L116.36 341.876C104.904 333.029 99.0417 318.737 100.985 304.394Z" stroke="#AA4421" stroke-width="5" stroke-miterlimit="10"/>
<path d="M49.4638 118.945L55.3424 75.4199C56.6137 65.9905 62.8281 57.9463 71.6374 54.3328L112.266 37.6669C121.075 34.0533 131.149 35.4163 138.675 41.2367L173.426 68.0958C180.952 73.9163 184.811 83.3234 183.54 92.7528L177.661 136.278C176.39 145.707 170.176 153.751 161.366 157.365L120.737 174.031C111.928 177.644 101.855 176.281 94.3283 170.461L59.5781 143.602C52.0513 137.781 48.1926 128.374 49.4638 118.945Z" stroke="#AA4421" stroke-width="5" stroke-miterlimit="10"/>
<path d="M191.56 490.216L198.272 440.564C199.72 429.797 206.816 420.627 216.866 416.504L263.225 397.488C273.275 393.365 284.756 394.915 293.358 401.559L333.005 432.195C341.596 438.844 345.992 449.559 344.544 460.326L337.832 509.978C336.384 520.745 329.288 529.915 319.238 534.037L272.879 553.054C262.829 557.176 251.348 555.626 242.745 548.982L203.099 518.347C194.508 511.698 190.112 500.982 191.56 490.216Z" stroke="#AA4421" stroke-width="5" stroke-miterlimit="10"/>
<path d="M323.919 340.175L330.631 290.523C332.079 279.756 339.175 270.586 349.225 266.463L395.584 247.447C405.634 243.324 417.115 244.874 425.717 251.518L465.364 282.154C473.955 288.803 478.351 299.518 476.903 310.285L470.191 359.937C468.743 370.704 461.647 379.874 451.597 383.996L405.238 403.013C395.188 407.135 383.707 405.585 375.104 398.941L335.458 368.306C326.867 361.657 322.471 350.941 323.919 340.175Z" stroke="#AA4421" stroke-width="5" stroke-miterlimit="10"/>
<path d="M398.22 501.745L403.153 465.262C404.218 457.354 409.427 450.618 416.815 447.587L450.868 433.619C458.256 430.588 466.684 431.73 473.007 436.608L502.138 459.117C508.45 464 511.679 471.873 510.614 479.782L505.682 516.264C504.617 524.172 499.407 530.908 492.019 533.939L457.966 547.907C450.578 550.938 442.151 549.796 435.828 544.918L406.696 522.409C400.384 517.526 397.155 509.653 398.22 501.745Z" stroke="#AA4421" stroke-width="5" stroke-miterlimit="10"/>
<path d="M450.856 182.633L454 159.363C454.683 154.313 458.009 150.023 462.713 148.093L484.437 139.182C489.152 137.248 494.527 137.982 498.554 141.087L517.134 155.446C521.166 158.562 523.225 163.581 522.543 168.631L519.398 191.901C518.716 196.951 515.389 201.241 510.685 203.171L488.961 212.082C484.246 214.016 478.872 213.282 474.844 210.177L456.264 195.819C452.232 192.702 450.173 187.683 450.856 182.633Z" stroke="#AA4421" stroke-width="5" stroke-miterlimit="10"/>
<path d="M-88.2874 658.232L-83.3545 621.75C-82.2895 613.841 -77.0801 607.106 -69.6921 604.075L-35.6393 590.107C-28.2512 587.076 -19.8237 588.218 -13.5006 593.096L15.6307 615.605C21.9425 620.488 25.172 628.361 24.1071 636.269L19.1742 672.752C18.1092 680.66 12.8999 687.396 5.51186 690.427L-28.5409 704.395C-35.929 707.426 -44.3566 706.284 -50.6797 701.406L-79.811 678.896C-86.1228 674.014 -89.3524 666.141 -88.2874 658.232Z" stroke="#AA4421" stroke-width="5" stroke-miterlimit="10"/>
<path d="M120.039 688.857L123.268 664.959C123.965 659.784 127.384 655.364 132.212 653.384L154.522 644.232C159.361 642.247 164.887 642.998 169.018 646.193L188.099 660.939C192.229 664.133 194.349 669.299 193.651 674.474L190.422 698.372C189.724 703.547 186.306 707.966 181.478 709.947L159.168 719.099C154.329 721.083 148.802 720.333 144.672 717.138L125.591 702.392C121.46 699.198 119.341 694.032 120.039 688.857Z" stroke="#AA4421" stroke-width="5" stroke-miterlimit="10"/>
</g>
<mask id="mask2_102_168" style="mask-type:luminance" maskUnits="userSpaceOnUse" x="471" y="-39" width="965" height="1241">
<path d="M471.194 1201.15L1435.9 1201L1435.71 -39L471.001 -38.8492L471.194 1201.15Z" fill="white"/>
</mask>
<g mask="url(#mask2_102_168)">
<path d="M1321.91 -121.052L1369.32 -148.44C1379.6 -154.381 1392.27 -154.383 1402.55 -148.445L1449.98 -121.072C1460.26 -115.134 1466.59 -104.175 1466.59 -92.305L1466.6 -37.555C1466.6 -25.685 1460.27 -14.714 1450 -8.78236L1402.58 18.6051C1392.3 24.5467 1379.63 24.5486 1369.35 18.6102L1321.93 -8.76235C1311.64 -14.7007 1305.31 -25.6598 1305.31 -37.5298L1305.3 -92.2798C1305.3 -104.15 1311.63 -115.121 1321.91 -121.052Z" stroke="#AA4421" stroke-width="5" stroke-miterlimit="10"/>
<path d="M1215.13 -148.416L1262.56 -121.043C1272.84 -115.105 1279.17 -104.146 1279.17 -92.2757L1279.18 -37.5257C1279.18 -25.6557 1272.85 -14.6847 1262.58 -8.75306L1215.16 18.6344C1204.88 24.576 1192.21 24.5779 1181.93 18.6395L1134.51 -8.73305C1124.22 -14.6714 1117.89 -25.6305 1117.89 -37.5005L1117.88 -92.2505C1117.88 -104.12 1124.21 -115.091 1134.49 -121.023L1181.9 -148.41C1192.18 -154.352 1204.85 -154.354 1215.13 -148.416Z" stroke="#AA4421" stroke-width="5" stroke-miterlimit="10"/>
<path d="M1229.78 36.0722L1277.2 8.68483C1287.48 2.74322 1300.15 2.74124 1310.43 8.67964L1357.85 36.0522C1368.13 41.9906 1374.46 52.9497 1374.47 64.8197L1374.48 119.57C1374.48 131.44 1368.15 142.411 1357.87 148.342L1310.45 175.73C1300.18 181.671 1287.51 181.673 1277.22 175.735L1229.8 148.362C1219.52 142.424 1213.19 131.465 1213.19 119.595L1213.18 64.8449C1213.18 52.9749 1219.5 42.0039 1229.78 36.0722Z" stroke="#AA4421" stroke-width="5" stroke-miterlimit="10"/>
<path d="M1417.35 36.0429L1464.77 8.65553C1475.05 2.71393 1487.72 2.71195 1498 8.65034L1545.42 36.0229C1555.7 41.9613 1562.03 52.9204 1562.04 64.7904L1562.05 119.54C1562.05 131.41 1555.72 142.381 1545.44 148.313L1498.02 175.7C1487.74 181.642 1475.07 181.644 1464.79 175.705L1417.37 148.333C1407.09 142.394 1400.76 131.436 1400.76 119.566L1400.75 64.8156C1400.74 52.9456 1407.07 41.9746 1417.35 36.0429Z" stroke="#AA4421" stroke-width="5" stroke-miterlimit="10"/>
<path d="M1116.08 30.1799L1152.15 50.9942C1159.98 55.503 1164.8 63.8523 1164.8 72.8823L1164.8 114.532C1164.81 123.562 1159.99 131.903 1152.17 136.424L1116.1 157.25C1108.28 161.761 1098.65 161.763 1090.83 157.254L1054.76 136.44C1046.94 131.931 1042.12 123.581 1042.11 114.551L1042.11 72.9014C1042.11 63.8714 1046.93 55.5307 1054.74 51.0095L1090.81 30.1839C1098.63 25.6726 1108.26 25.6711 1116.08 30.1799Z" stroke="#AA4421" stroke-width="5" stroke-miterlimit="10"/>
<path d="M1211.64 168.755L1259.07 196.128C1269.35 202.066 1275.68 213.025 1275.68 224.895L1275.69 279.645C1275.69 291.515 1269.36 302.486 1259.08 308.418L1211.67 335.805C1201.39 341.747 1188.72 341.749 1178.44 335.81L1131.01 308.438C1120.73 302.499 1114.4 291.54 1114.4 279.67L1114.39 224.92C1114.39 213.05 1120.72 202.079 1131 196.148L1178.41 168.76C1188.69 162.819 1201.36 162.817 1211.64 168.755Z" stroke="#AA4421" stroke-width="5" stroke-miterlimit="10"/>
<path d="M1368.42 187.361L1399.62 205.366C1406.38 209.265 1410.55 216.484 1410.55 224.294L1410.56 260.314C1410.56 268.124 1406.39 275.345 1399.63 279.246L1368.43 297.261C1361.67 301.162 1353.33 301.163 1346.57 297.264L1315.37 279.259C1308.61 275.36 1304.44 268.141 1304.44 260.331L1304.43 224.311C1304.43 216.501 1308.6 209.28 1315.36 205.379L1346.56 187.364C1353.32 183.463 1361.66 183.462 1368.42 187.361Z" stroke="#AA4421" stroke-width="5" stroke-miterlimit="10"/>
<path d="M1042.43 179.671L1078.03 200.216C1085.75 204.665 1090.5 212.904 1090.5 221.814L1090.51 262.914C1090.51 271.824 1085.76 280.055 1078.04 284.516L1042.45 305.071C1034.73 309.523 1025.23 309.524 1017.51 305.075L981.921 284.531C974.2 280.082 969.449 271.843 969.448 262.933L969.441 221.833C969.44 212.923 974.188 204.692 981.908 200.231L1017.49 179.675C1025.21 175.224 1034.71 175.223 1042.43 179.671Z" stroke="#AA4421" stroke-width="5" stroke-miterlimit="10"/>
<path d="M1115.12 326.81L1150.71 347.355C1158.43 351.803 1163.18 360.043 1163.18 368.953L1163.19 410.053C1163.19 418.963 1158.44 427.193 1150.72 431.655L1115.14 452.21C1107.42 456.661 1097.92 456.663 1090.2 452.214L1054.6 431.67C1046.88 427.221 1042.13 418.981 1042.13 410.071L1042.12 368.971C1042.12 360.061 1046.87 351.831 1054.59 347.37L1090.18 326.814C1097.9 322.363 1107.4 322.361 1115.12 326.81Z" stroke="#AA4421" stroke-width="5" stroke-miterlimit="10"/>
<path d="M969.379 332.923L995.531 348.019C1001.2 351.288 1004.69 357.337 1004.69 363.887L1004.7 394.077C1004.7 400.627 1001.21 406.668 995.541 409.949L969.393 425.053C963.724 428.324 956.744 428.325 951.073 425.056L924.921 409.96C919.25 406.691 915.759 400.641 915.758 394.091L915.754 363.901C915.753 357.351 919.242 351.311 924.911 348.03L951.059 332.926C956.728 329.655 963.708 329.654 969.379 332.923Z" stroke="#AA4421" stroke-width="5" stroke-miterlimit="10"/>
<path d="M1195.18 472.167L1211.86 481.795C1215.48 483.884 1217.7 487.744 1217.7 491.914L1217.71 511.174C1217.71 515.354 1215.48 519.204 1211.87 521.295L1195.19 530.927C1191.57 533.018 1187.12 533.019 1183.5 530.929L1166.82 521.302C1163.2 519.212 1160.98 515.353 1160.98 511.183L1160.97 491.923C1160.97 487.743 1163.2 483.892 1166.81 481.802L1183.49 472.169C1187.11 470.079 1191.56 470.078 1195.18 472.167Z" stroke="#AA4421" stroke-width="5" stroke-miterlimit="10"/>
<path d="M1002 -84.9923L1028.16 -69.8963C1033.83 -66.6271 1037.32 -60.5777 1037.32 -54.0277L1037.32 -23.8378C1037.32 -17.2878 1033.83 -11.2472 1028.17 -7.96633L1002.02 7.13773C996.348 10.4086 989.368 10.4097 983.698 7.1406L957.545 -7.95529C951.875 -11.2244 948.384 -17.2739 948.383 -23.8239L948.378 -54.0138C948.377 -60.5638 951.866 -66.6043 957.536 -69.8852L983.683 -84.9894C989.353 -88.2603 996.333 -88.2614 1002 -84.9923Z" stroke="#AA4421" stroke-width="5" stroke-miterlimit="10"/>
<path d="M913.936 63.5816L931.068 73.4689C934.778 75.6084 937.069 79.578 937.07 83.858L937.073 103.638C937.073 107.928 934.784 111.888 931.074 114.029L913.946 123.922C910.236 126.062 905.656 126.063 901.946 123.923L884.814 114.036C881.104 111.897 878.813 107.927 878.813 103.647L878.81 83.8671C878.809 79.5771 881.098 75.6167 884.808 73.4762L901.936 63.5835C905.646 61.4429 910.226 61.4422 913.936 63.5816Z" stroke="#AA4421" stroke-width="5" stroke-miterlimit="10"/>
</g>
</svg>
