<svg width="467" height="152" viewBox="0 0 467 152" fill="none" xmlns="http://www.w3.org/2000/svg">
<path d="M428.463 135.687C425.892 134.578 424.843 135.199 422.059 133.602C421.411 133.228 420.265 132.361 417.966 130.625C416.088 129.203 415.136 128.48 414.54 127.926C413.245 126.709 411.821 125.371 411.056 123.455C409.075 118.502 412.805 112.977 413.666 111.73C413.737 111.627 413.809 111.525 413.88 111.422L418.245 105.74C418.303 105.668 418.361 105.602 418.419 105.529C420.129 103.613 421.884 101.872 423.289 100.462L423.898 99.8535C441.441 82.3195 470.801 52.9756 466.592 31.2297C464.442 20.1068 453.136 9.30919 443.895 5.68187C439.226 3.85013 435.269 3.82001 432.446 5.59751C427.673 8.59818 424.908 11.7676 423.975 15.2864C422.331 21.5228 425.446 26.1202 429.059 31.4467C431.371 34.851 433.987 38.7073 435.748 43.5879C436.422 45.4438 436.94 47.3719 437.29 49.3242C437.413 50.005 437.516 50.698 437.6 51.427C439.355 72.0039 417.94 91.8035 405.151 103.631C403.966 104.728 402.852 105.758 401.848 106.704C399.491 108.928 394.582 113.555 389.24 112.784C386.637 112.411 382.822 110.561 379.455 103.891C376.172 97.3891 376.081 89.6585 384.726 65.5326C384.791 65.3579 384.869 65.1891 384.959 65.0265C388.748 58.2237 393.559 47.5466 399.29 33.2603C399.316 33.194 399.342 33.1217 399.361 33.0555C404.451 17.3953 395.748 7.81488 395.748 7.81488C392.478 4.01282 389.803 3.68745 389.201 3.07888C387.012 0.849464 375.369 -2.06685 352.658 2.13891C346.811 3.22349 339.629 5.17573 325.266 9.09227C314.258 12.0929 315.307 11.8579 310.087 13.286C295.303 17.317 283.148 17.9256 275.85 14.9912C275.779 14.9611 275.649 14.9249 275.468 14.8767C275.008 14.7502 274.16 14.5152 273.189 14.003C268.72 11.641 264.194 10.4902 260.075 10.6709H259.991C258.476 10.7493 257.045 11.0144 255.769 11.4482C245.479 14.3103 228.357 24.9633 214.137 37.3456C205.537 44.8292 197.766 53.2286 191.012 62.321C190.403 63.1405 189.445 63.731 188.376 63.7852C187.949 63.8093 187.593 63.737 187.308 63.5803C184.691 62.1162 187.139 53.0358 189.101 45.739C189.639 43.7386 190.15 41.8526 190.571 40.0932C191.245 37.2853 191.886 35.2849 192.449 33.5134C193.492 30.2476 194.185 28.0905 193.913 24.192C193.725 21.5107 193.375 16.5156 189.652 12.6533C189.451 12.4484 184.711 7.62206 178.481 8.66446C173.132 9.56225 169.48 14.1416 167.978 17.787C165.329 24.2041 168.25 29.868 171.636 36.4237C177.536 47.866 177.788 54.5844 177.983 60.8388C178.274 70.1963 175.334 77.481 173.469 82.1086C171.481 87.0314 168.988 93.2255 162.881 99.4619C156.613 105.873 149.671 109.127 145.494 110.717C145.494 110.717 129.875 117.363 111.043 110.151C109.586 109.591 106.037 108.018 103.408 104.385C101.362 101.565 100.812 98.7991 100.637 97.3469C100.404 95.4369 100.209 92.7796 100.384 89.6103C100.559 86.459 100.701 83.856 101.783 80.9397C102.502 78.9934 104.691 73.3054 110.726 70.3288C115.699 67.8765 120.634 68.5031 122.492 68.7381C123.366 68.8466 125.685 69.1418 133.741 72.9921C137.665 74.866 139.731 76.047 141.388 76.993C143.189 78.0233 144.497 78.7645 147.068 79.7165C152.06 81.5663 158.899 84.103 162.661 81.1144C165.731 78.6801 165.128 73.9562 164.902 72.1787C164.351 67.8705 161.858 63.6346 157.876 60.2543C151.102 54.506 139.226 51.7645 126.119 52.9153C114.281 53.9577 104.127 58.0791 99.62 63.6768C98.7134 64.8035 97.4183 66.0749 96.434 65.7616C95.4756 65.4543 92.3802 62.6946 92.8205 40.0269C92.9501 33.4471 97.4636 27.7892 103.57 26.5781C111.108 25.0838 122.298 24.6741 132.821 31.2237C141.984 36.9238 148.719 38.9724 153.42 37.4902C157.513 36.1947 159.358 32.3987 160.505 29.2353C161.787 25.6924 161.366 20.3719 157.519 16.4614C154.269 13.1594 147.586 9.85148 134.174 12.8702C122 15.6058 112.196 17.1182 104.211 17.4857L103.894 17.4375C102.133 17.1844 99.7172 16.841 96.7383 15.0213C95.2554 14.1175 94.5172 13.3944 93.8113 12.6895C93.0278 11.9182 92.2895 11.1891 90.7289 10.3576C86.4484 8.08602 82.1356 8.32704 79.2863 8.4837L79.1179 8.49575C75.2908 8.70664 67.3321 9.14047 62.566 14.473C55.2355 22.6676 60.6492 36.7671 62.4818 40.8946C62.7927 41.5935 63.1488 42.2623 63.5762 42.9432C65.3376 45.745 73.8791 60.2362 69.3914 70.5337C67.3775 75.1552 62.9675 78.3788 56.2975 80.1081C47.4841 82.3918 41.2933 81.9399 37.8935 78.7705C33.2375 74.4322 35.2709 66.1894 35.5752 65.0686C35.6011 64.9963 35.6206 64.924 35.6465 64.8517C36.5077 62.4295 48.0863 29.1449 38.7419 17.6785C36.5142 14.949 33.2764 13.6596 29.106 13.8524C22.6109 14.1536 17.7929 16.1601 14.7947 19.8296C9.75658 25.9816 11.2654 35.1885 12.1461 38.858C12.6318 40.8885 12.9685 42.6239 13.2081 43.8892C13.383 44.8111 13.5125 45.4799 13.6226 45.8475C15.9085 53.542 16.7374 63.5623 16.0833 75.6312C15.9733 77.6076 15.4876 79.4996 14.6263 81.259C12.852 84.9044 11.2071 88.6643 9.73715 92.4362C2.53616 110.928 -5.19584 142.206 4.67962 147.436C6.6029 148.455 9.07663 148.563 12.0425 147.756C12.8455 147.641 21.4906 146.231 27.8432 138.681C33.3023 132.192 34.1765 122.196 30.181 111.947C27.3446 104.656 30.5048 96.5214 37.5374 93.0267C42.7439 90.4357 48.3842 89.9115 53.0014 91.5806C54.698 92.1952 56.2781 93.1171 57.7028 94.3222C61.7112 97.7145 63.5633 103.047 62.5272 108.235C61.1349 115.236 59.1145 128.059 61.2773 135.277C63.2524 141.881 68.8928 147.696 74.831 149.328C75.1289 149.413 75.4138 149.527 75.6793 149.672C79.4611 151.696 84.6158 151.48 92.2507 148.985C94.161 148.364 97.1463 147.551 100.617 145.605C105.869 142.658 106.64 140.417 110.305 137.838C117.538 132.734 126.423 133.072 128.45 133.15C137.801 133.506 144.264 137.85 146.569 139.573L146.731 139.706C150.299 142.64 152.417 144.388 152.98 144.882C153.051 144.954 153.116 145.02 153.187 145.087C153.874 145.846 154.754 146.515 155.79 147.081L156.056 147.226C156.192 147.292 156.386 147.388 156.632 147.503L156.749 147.557C157.247 147.78 158.031 148.093 158.925 148.316L159.261 148.401C165.847 150.045 173.825 148.244 178.663 144.026C184.73 138.736 184.672 130.915 184.51 128.643C184.193 124.154 182.321 121.883 180.34 119.478C178.559 117.321 176.72 115.092 175.768 110.928C172.906 98.4556 180.651 87.1459 183.565 82.8919C186.129 79.1441 187.709 77.7221 189.237 77.8185C191.86 77.9872 193.382 82.928 195.681 90.4116C197.623 96.7323 200.045 104.602 204.255 113.682C209.338 124.66 213.923 132.09 222.302 137.591C235.765 146.43 255.782 146.737 268.61 142.49C268.701 142.465 268.792 142.435 268.882 142.411C274.05 141.164 276.99 139.832 279.36 138.766C281.782 137.669 283.699 136.808 287.027 136.416C294.293 135.566 299.098 137.97 305.185 141.013C307.795 142.321 310.495 143.671 313.681 144.9C321.484 147.924 330.408 149.738 338.839 150.015C339.001 150.015 339.157 150.039 339.312 150.064C342.913 150.69 348.916 150.552 354.53 148.84C357.204 148.027 359.199 147.027 361.304 145.972C364.004 144.617 367.067 143.086 372.332 141.55C373.161 141.309 375.414 140.682 378.412 140.061C386.63 138.362 396.272 136.802 406.705 139.85C409.023 140.525 411.154 141.284 413.498 143.008C417.701 146.087 417.267 148.617 420.777 150.527C423.444 151.98 428.146 152.944 431.636 150.527C434.337 148.66 435.528 145.315 434.952 142.405C434.091 138.091 429.357 136.072 428.463 135.687ZM85.7037 100.155C85.6066 100.571 85.4771 100.956 85.3087 101.324C84.959 102.089 84.7065 102.643 84.1819 102.92C83.2365 103.427 81.8766 102.86 81.2938 102.493C80.3807 101.914 79.9727 101.028 79.7914 100.378C78.7877 93.8642 79.1892 85.4587 80.9829 75.4203C81.1189 74.8298 81.3197 74.2936 81.6046 73.7814C82.0126 73.0403 82.3105 72.5101 82.8544 72.269C83.8387 71.8292 85.1468 72.486 85.7037 72.8957C86.1052 73.1909 86.429 73.5705 86.6686 74.0285C87.355 82.3135 87.0118 91.5866 85.7102 100.167L85.7037 100.155ZM261.474 107.211C255.244 113.025 246.34 115.188 235.001 113.652C225.916 112.417 219.084 108.892 214.7 103.18C208.548 95.1597 207.065 82.9702 210.296 66.9365C213.508 51.0173 232.107 39.5569 247.02 39.5569C248.361 39.5569 249.669 39.6473 250.938 39.8401L251.061 39.8582C256.293 40.6716 260.878 43.606 263.643 47.9142C267.548 54.0119 270.08 60.5375 271.168 67.298C272.768 77.2702 272.528 96.901 261.48 107.217L261.474 107.211ZM344.739 129.342C339.578 133.234 331.418 134.843 322.916 133.632C313.183 132.252 304.55 127.486 299.817 120.876C294.293 113.164 295.193 104.849 295.601 102.487C297.097 93.798 303.592 85.4346 312.969 80.1021C320.545 75.7939 328.459 74.4081 334.675 76.294C343.113 78.8548 350.12 88.3329 352.529 100.438C354.452 110.121 353.416 122.792 344.732 129.342H344.739ZM322.747 64.4601C323.181 63.8394 323.46 63.4237 323.634 63.1646C323.447 63.4719 323.149 63.9298 322.747 64.4601ZM374.151 58.8865C374.035 59.947 373.815 61.9173 372.416 63.96C371.574 65.1891 370.693 65.9363 370.434 66.1532C369.269 66.7799 367.371 67.6294 364.878 67.9789C364.878 67.9789 363.356 68.2621 361.964 68.1296C359.432 67.8885 355.968 66.4244 350.593 60.8026C346.034 56.0365 341.339 53.8613 336.644 54.3433C330.861 54.9338 326.425 59.4168 323.893 62.7368C323.893 62.7368 323.88 62.7488 323.861 62.779C323.22 63.6225 322.702 64.3817 322.32 64.9843C321.471 66.0086 320.267 67.1836 318.687 68.0934C317.23 68.9309 315.87 69.2141 313.157 69.7805C312.891 69.8348 306.772 71.076 302.634 70.0276C300.931 69.5937 299.344 68.9671 297.783 68.1055C296.404 66.8522 294.785 65.147 293.276 62.9417C292.098 61.2244 291.256 59.5915 290.654 58.1936C290.006 56.5848 286.995 48.6192 291.178 39.8823C295.97 29.868 306.325 26.9155 307.814 26.5179C310.774 25.4996 315.345 24.3005 320.979 24.3547C324.819 24.3909 327.857 25.0717 333.782 26.4275C340.86 28.0483 344.402 28.8557 348.618 30.6875C354.873 33.4049 358.933 36.5743 362.812 39.5991C366.821 42.7263 368.861 44.3471 370.79 47.2574C371.555 48.4143 374.741 53.4335 374.158 58.8805L374.151 58.8865Z" fill="#FDCE65"/>
</svg>
