<svg width="688" height="180" viewBox="0 0 688 180" fill="none" xmlns="http://www.w3.org/2000/svg">
<path d="M82.2415 178.047C72.912 178.047 65.0022 172.264 58.5122 160.699C52.0474 149.133 47.1545 132.369 43.8841 110.404C43.0728 105.332 42.1095 99.2954 41.0447 92.3207C39.9799 85.3459 38.9658 78.5994 37.9771 72.0304C36.9884 65.4868 36.1011 59.6533 35.2645 54.5808C34.4532 49.5082 33.8701 46.211 33.5405 44.74C32.7293 40.479 30.6758 38.3486 27.4054 38.3486C23.9575 38.3486 21.473 40.8595 19.9012 45.856C18.3294 50.8524 17.5688 57.041 17.5688 64.4216C17.5688 72.6137 18.4561 80.1719 20.2815 87.0452C22.0815 93.9185 24.1603 100.411 26.5434 106.473C28.9265 112.535 31.2082 118.368 33.4138 123.923C35.6194 129.503 37.1912 135.032 38.0785 140.51C38.9658 146.014 38.8644 151.67 37.6982 157.478C36.8363 161.84 35.0616 166.405 32.349 171.199C30.6251 174.243 27.3293 176.018 23.8307 175.967L9.53228 175.764C3.1943 175.663 -1.3944 169.652 0.278831 163.54C1.01404 160.826 1.64783 157.909 2.18022 154.789C3.57458 146.521 4.25908 135.97 4.25908 123.187V58.512C4.25908 49.6604 5.1464 41.6204 6.97173 34.4173C8.77172 27.2143 11.3576 21.0511 14.7041 15.9786C18.0505 10.906 22.0308 6.97475 26.6195 4.18484C31.056 1.5471 35.7715 0.152149 40.8419 -2.77981e-05C45.3038 -0.126842 49.7404 0.96376 53.5939 3.19569C57.4474 5.42762 60.591 8.26825 63.5572 12.0473C66.498 15.8264 69.0079 20.3156 71.0614 25.5657C73.1149 30.8158 74.636 36.4717 75.5993 42.5334L88.8837 126.89C89.3654 130.669 90.5316 132.546 92.3316 132.546C92.8133 132.546 93.3457 132.419 93.9288 132.166C94.5119 131.912 95.0443 131.303 95.5259 130.314C96.0076 129.325 96.4133 127.854 96.7428 125.876C97.0724 123.897 97.2245 121.285 97.2245 118.013C97.2245 112.763 97.1485 105.281 96.971 95.5164C96.8189 85.7517 96.7175 73.4254 96.7175 58.512C96.7175 50.3198 97.7823 42.6602 99.9118 35.5079C102.041 28.381 104.982 22.1924 108.76 16.9423C112.537 11.6922 116.898 7.55809 121.917 4.51456C126.912 1.47102 132.362 -0.0253906 138.269 -0.0253906C150.058 -0.0253906 159.032 5.14863 165.193 15.4713C171.354 25.794 174.421 40.1493 174.421 58.512V123.187C174.421 135.97 175.106 146.521 176.5 154.789C177.007 157.884 177.641 160.775 178.376 163.489C180.049 169.627 175.435 175.663 169.097 175.714L139.03 176.043C135.759 176.043 132.565 174.699 129.447 171.985C126.329 169.271 124.199 166.05 123.058 162.271C121.081 155.068 120.599 148.626 121.588 142.97C122.576 137.314 124.072 131.126 126.126 124.405C128.179 117.683 130.182 109.821 132.159 100.792C134.137 91.788 135.1 80.2987 135.1 66.3745C135.1 62.773 134.897 59.2475 134.492 55.7982C134.086 52.3489 133.351 49.356 132.286 46.8198C131.221 44.2835 129.878 42.2291 128.23 40.6819C126.582 39.1348 124.554 38.3486 122.095 38.3486C118.317 38.3486 115.453 41.3921 113.5 47.4538C111.523 53.5155 110.382 63.686 110.053 77.9399C109.875 84.0017 109.977 91.6359 110.306 100.817C110.636 109.999 110.788 120.575 110.788 132.546C110.788 147.967 108.177 159.38 102.929 166.862C97.6808 174.319 90.8105 178.047 82.2922 178.047H82.2415Z" fill="white"/>
<path d="M231.691 176.069C225.962 176.069 220.79 175.257 216.201 173.609C211.612 171.96 207.683 169.728 204.412 166.837C201.142 163.971 198.582 160.521 196.782 156.514C194.982 152.507 194.069 148.119 194.069 143.351C194.069 131.887 199.317 121.666 209.812 112.738C220.308 103.81 236.204 95.8209 257.499 88.77C258.97 88.2881 260.035 87.5779 260.694 86.6902C261.353 85.8025 261.556 84.9402 261.302 84.1032C261.049 83.2916 260.313 82.6322 259.097 82.1249C257.88 81.643 256.181 81.4655 254.051 81.643C249.615 81.9727 243.86 83.6467 236.711 86.6902C229.587 89.7338 222.083 93.4621 214.224 97.8752C207.835 101.654 203.297 102.669 200.584 100.944C197.872 99.2195 196.528 94.9078 196.528 88.0345V56.8128C196.528 44.03 195.818 33.5044 194.449 25.2107C194.145 23.41 193.815 21.6599 193.435 19.986C191.635 11.9967 197.694 4.38785 205.883 4.36249L294.285 4.00741C301.383 3.98204 307.164 9.73941 307.164 16.841V46.9974C307.164 50.9286 305.186 52.2475 301.257 50.9286C296.998 49.4576 292.662 48.0626 288.226 46.7438C283.789 45.4249 279.505 44.2582 275.322 43.1676C271.139 42.1024 267.209 41.2908 263.533 40.7074C259.857 40.1241 256.764 39.8451 254.305 39.8451C249.057 39.8451 244.798 41.0371 241.528 43.4212C238.257 45.8054 236.609 49.0264 236.609 53.1352V61.5049C236.609 65.4362 237.497 68.0993 239.322 69.4942C241.122 70.8892 243.378 71.6754 246.091 71.8276C248.804 71.9798 251.795 71.8276 255.066 71.3457C258.336 70.8638 261.454 70.6102 264.395 70.6102C269.136 70.6102 272.989 71.6754 275.956 73.8059C278.896 75.9364 280.392 78.8024 280.392 82.4039C280.392 85.6757 279.251 88.4656 276.944 90.7737C274.637 93.0817 270.708 95.4404 265.156 97.9006C253.19 102.973 244.798 107.158 239.956 110.43C235.114 113.702 232.705 116.999 232.705 120.271C232.705 122.071 233.39 123.669 234.784 125.064C236.178 126.459 238.054 127.702 240.438 128.742C242.821 129.807 245.483 130.619 248.423 131.202C251.364 131.785 254.406 132.064 257.525 132.064C265.384 132.064 273.015 131.202 280.392 129.477C287.77 127.753 294.64 125.267 301.029 121.97C303.158 120.829 307.164 122.147 307.164 124.43V163.235C307.164 170.311 301.409 176.069 294.336 176.069H231.691Z" fill="white"/>
<path d="M325.113 138.938C325.113 132.698 326.71 127.144 329.904 122.223C333.099 117.303 337.155 112.966 342.073 109.187C346.991 105.408 352.391 102.187 358.298 99.473C364.205 96.7592 369.935 94.4765 375.512 92.5997C381.09 90.7228 386.084 89.2011 390.495 88.0598C394.932 86.9184 398.126 86.0815 400.078 85.5996C401.549 85.1177 402.614 84.4075 403.273 83.5198C403.932 82.6321 404.135 81.7698 403.881 80.9328C403.628 80.1212 402.943 79.4618 401.802 78.9545C400.661 78.4726 398.938 78.2951 396.631 78.4726C388.264 79.132 379.391 80.8821 369.96 83.7481C360.529 86.6141 351.403 90.1902 342.555 94.4512C335.685 97.3933 330.994 98.2302 328.535 96.9114C326.076 95.5925 324.859 91.5091 324.859 84.6104V41.0878C324.859 32.2362 323.845 25.0585 321.792 19.5801C321.437 18.6163 321.031 17.6525 320.575 16.7141C317.887 11.1597 321.766 4.69214 327.952 4.69214H356.929C363.115 4.69214 366.994 11.1597 364.307 16.7141C363.85 17.6525 363.445 18.591 363.09 19.5801C361.036 25.0839 360.022 32.2362 360.022 41.0878V65.4361C360.022 69.3673 361.239 71.5486 363.698 71.9544C366.158 72.3602 369.098 72.1573 372.546 71.3456C387.301 68.1246 398.76 66.9832 406.923 67.947C409.56 68.2514 411.867 66.197 411.867 63.5339V41.0878C411.867 32.2362 410.853 25.0585 408.799 19.5801C408.445 18.6163 408.039 17.6525 407.583 16.7141C404.895 11.1597 408.774 4.69214 414.96 4.69214H446.396C452.582 4.69214 456.461 11.1597 453.774 16.7141C453.317 17.6525 452.912 18.591 452.557 19.5801C450.503 25.0839 449.489 32.2362 449.489 41.0878V138.963C449.489 147.815 450.503 154.992 452.557 160.471C452.912 161.434 453.317 162.398 453.774 163.337C456.461 168.891 452.582 175.359 446.396 175.359H415.188C409.002 175.359 405.123 168.891 407.811 163.337C408.267 162.398 408.673 161.46 409.028 160.471C411.081 154.967 412.095 147.815 412.095 138.963V99.6506C412.095 96.6578 409.205 94.5273 406.34 95.3896L406.188 95.4403C399.318 97.5708 393.031 99.9549 387.377 102.567C381.724 105.18 376.856 108.147 372.749 111.419C368.642 114.691 365.498 118.47 363.293 122.731C361.087 126.992 359.972 131.836 359.972 137.238V138.963C359.972 147.815 360.986 154.992 363.039 160.471C363.394 161.434 363.8 162.398 364.256 163.337C366.943 168.891 363.065 175.359 356.879 175.359H328.13C321.944 175.359 318.065 168.891 320.752 163.337C321.209 162.398 321.614 161.46 321.969 160.471C324.023 154.967 325.037 147.815 325.037 138.963L325.113 138.938Z" fill="white"/>
<path d="M616.153 180C605.505 180 595.541 177.743 586.288 173.228C577.035 168.714 568.922 162.525 561.95 154.663C554.978 146.8 549.376 137.543 545.117 126.865C540.857 116.212 538.474 104.723 537.993 92.4475C537.993 91.9656 537.942 91.5091 537.866 91.1033C537.79 90.6975 537.739 90.241 537.739 89.7591C533.15 89.9366 529.5 90.2409 526.812 90.7482C524.1 91.2301 522.021 91.9403 520.551 92.828C519.08 93.741 518.091 94.8316 517.61 96.1505C517.128 97.4694 516.875 98.9404 516.875 100.589C517.686 114.513 519.207 128.057 521.413 141.17C522.832 149.539 524.531 157.25 526.508 164.3C528.105 169.982 523.948 175.638 518.041 175.688L482.447 175.967C476.312 176.018 472.027 169.982 473.954 164.148C478.644 149.996 481.889 135.995 483.689 122.097C485.971 104.317 486.554 87.7047 485.413 72.3094C484.272 56.8888 481.889 43.2183 478.289 31.247C476.616 25.6672 474.816 20.6961 472.914 16.359C470.354 10.5002 474.689 3.93124 481.078 3.93124H514.922C521.007 3.93124 525.317 9.8915 523.365 15.6489C521.666 20.62 519.942 26.352 519.08 30.968C517.103 41.6204 516.038 54.4033 515.886 69.342C515.886 71.1427 515.962 72.6138 516.139 73.7805C516.291 74.9218 517.027 75.8602 518.345 76.6211C519.663 77.3566 521.818 77.8893 524.86 78.219C527.903 78.5487 532.365 78.7009 538.246 78.7009C539.057 67.389 541.491 56.9396 545.497 47.3524C549.502 37.7653 554.674 29.497 560.987 22.5222C567.299 15.5474 574.626 10.069 582.992 6.03635C591.358 2.02903 600.282 0 609.789 0C620.285 0 630.198 2.25729 639.527 6.77188C648.857 11.2865 657.02 17.475 663.992 25.3375C670.963 33.1999 676.566 42.4574 680.825 53.1351C685.084 63.7875 687.467 75.2769 687.949 87.5525C688.431 100.513 686.935 112.586 683.411 123.821C679.887 135.057 674.893 144.847 668.428 153.217C661.964 161.587 654.257 168.13 645.333 172.898C636.409 177.641 626.699 180.025 616.203 180.025L616.153 180ZM584.691 95.6432C588.468 122.198 593.412 141.296 599.572 152.938C605.708 164.579 613.795 169.83 623.784 168.688C633.772 167.369 640.161 160.039 642.95 146.673C645.738 133.307 645.155 112.535 641.226 84.3314C637.626 57.7765 632.707 38.6276 626.471 26.91C620.234 15.1923 612.122 9.99295 602.133 11.2865C592.144 12.4278 585.756 19.7323 582.967 33.1746C580.178 46.6169 580.761 67.4398 584.691 95.6432Z" fill="white"/>
</svg>
