<svg width="136" height="242" viewBox="0 0 136 242" fill="none" xmlns="http://www.w3.org/2000/svg">
<path d="M23.0032 149.763C24.0802 174.138 25.1573 198.508 26.2343 222.882C26.3982 226.591 28.5865 229.944 32.0362 231.316C37.4129 233.453 43.7052 235.395 50.8333 236.628C72.7734 240.426 91.4109 235.582 102.821 231.267C106.371 229.924 108.651 226.515 108.815 222.723C109.85 198.795 110.881 174.867 111.917 150.939" fill="#AA4421"/>
<path d="M23.0032 149.763C24.0802 174.138 25.1573 198.508 26.2343 222.882C26.3982 226.591 28.5865 229.944 32.0362 231.316C37.4129 233.453 43.7052 235.395 50.8333 236.628C72.7734 240.426 91.4109 235.582 102.821 231.267C106.371 229.924 108.651 226.515 108.815 222.723C109.85 198.795 110.881 174.867 111.917 150.939" stroke="#F5F5F5" stroke-width="7" stroke-miterlimit="10"/>
<path d="M4.23991 15.8693C3.09201 9.68953 7.83668 4 14.1222 4H121.96C128.271 4 133.018 9.75648 131.824 15.9541C125.718 47.6561 109.907 132.968 112.137 155.226C114.892 182.723 21.2804 184.374 22.9277 152.474C24.2529 126.818 9.90292 46.3568 4.23991 15.8693Z" fill="#AA4421" stroke="#F5F5F5" stroke-width="7" stroke-miterlimit="10"/>
<path d="M68.3443 186.824C61.7196 186.835 51.6782 185.857 43.9085 183.143C40.9174 182.098 34.128 185.701 34.3179 188.863L36.3102 222.061C36.3802 223.226 37.1174 224.249 38.2133 224.652C42.8747 226.364 48.59 227.991 55.2471 228.953C74.008 231.662 89.643 227.559 98.0611 224.63C99.1816 224.24 99.9399 223.208 100.014 222.024C100.7 210.995 101.385 199.966 102.071 188.935C102.268 185.769 95.4398 182.127 92.4426 183.168C84.7171 185.851 74.7981 186.813 68.3443 186.824Z" fill="#F5F5F5"/>
<path d="M118.698 11C122.297 11 125.013 14.2725 124.362 17.812C121.021 35.9774 111.978 86.5116 108.121 120.873C106.694 133.611 105.975 144.118 106.526 149.946C108.91 175.213 27.7224 176.719 29.1493 147.42C29.4567 141.095 28.7839 131.149 27.5542 119.436C24.2188 87.9271 16.7532 43.6635 13.0977 22.7826C12.021 16.6328 16.7517 11 22.9951 11H118.698Z" fill="#F5F5F5"/>
</svg>
