<svg width="115" height="361" viewBox="0 0 115 361" fill="none" xmlns="http://www.w3.org/2000/svg">
<g clip-path="url(#clip0_60_33)">
<path d="M14 85.866C20.163 82.9163 26.7717 80.4526 33.7953 78.7096C61.7285 71.8215 86.2421 79.0951 105 89" stroke="#F5F5F5" stroke-width="7.86" stroke-miterlimit="10"/>
<path d="M10.8044 83.1588C10.8044 83.1588 -30.7708 197.651 49.7725 234.782C51.0148 235.356 52.4123 235.511 53.7527 235.224C80.0611 229.656 104.253 192.173 104.253 192.173C104.253 192.173 115.261 182.095 52.6657 169.36C-7.61714 157.092 54.431 93.8192 59.0977 89.1614C59.3756 88.8826 59.6208 88.5956 59.8415 88.2758C60.6424 87.0868 61.9827 84.3971 59.678 82.0436C57.3733 79.6901 61.2962 78.1239 63.4048 77.4761C64.3038 77.2054 65.1375 76.7544 65.8403 76.1312C68.4475 73.8105 73.8579 68.0457 68.4229 63.962C62.3832 59.4273 75.7948 56.7376 79.3664 56.1226C80.012 56.0078 80.6332 55.8028 81.2134 55.5076C83.4855 54.3431 88.6671 51.227 86.5176 47.9387C85.1936 45.9132 84.9484 43.363 86.0436 41.2063C87.3267 38.6642 88.4137 36.0975 86.869 32.8502C85.9782 30.9888 85.9128 28.8485 86.82 26.9953C91.5684 17.2287 98.2293 0.0820055 86.9835 2.91879e-06C76.7265 -0.0737994 78.8923 10.9391 80.0774 15.1049C80.2817 15.8265 80.6577 16.4825 81.05 17.1221C81.6629 18.1144 81.9245 21.1649 74.855 29.9555C74.0867 30.915 73.5882 32.0712 73.4329 33.2931C72.3949 41.8377 72.3868 45.8312 64.7533 52.1782C59.3021 56.713 58.3377 59.3863 58.305 60.6655C58.2723 61.871 57.8391 63.019 57.1689 64.0276C54.9786 67.3323 49.7889 72.9249 39.4094 73.6383C26.6761 74.5076 23.4478 86.8161 22.7858 90.3259C22.6387 91.1049 22.369 91.8429 21.9522 92.5153C20.6445 94.6392 17.6941 97.9685 15.2831 90.047C12.0794 79.5261 10.8126 83.1506 10.8126 83.1506L10.8044 83.1588Z" fill="#F5F5F5"/>
<path d="M13.4598 95.4983C14.5742 90.3343 19.5912 87.0355 24.8217 87.7784C35.7093 89.3247 51.2267 90.9901 67.622 90.9901C78.51 90.9901 88.4183 90.2443 97.2299 88.7668C100.111 88.2838 102.895 90.1836 103.378 93.0647C106.794 113.738 111.052 139.462 106.762 163.751C101.85 191.55 86.6729 211.952 60.3564 226.122L57.9405 227.423C54.9828 229.016 51.3796 228.826 48.6038 226.934C33.574 216.741 19.3778 207.106 11.9241 187.22C4.15025 166.463 4.64013 136.369 13.4598 95.4983ZM58.5257 239.899L58.7627 330.684C58.7627 331.565 58.9481 332.443 59.3021 333.25C62.0563 339.565 65.9629 344.329 70.9239 347.412C76.7838 351.045 82.7826 351.521 88.0786 351.931C89.2427 352.021 89.2317 353.254 88.0683 353.352C87.5912 353.392 87.1016 353.432 86.5993 353.472C75.0021 354.366 62.4813 354.53 56.0575 354.546H55.5753C46.9458 354.546 38.2135 354.037 29.4695 353.03C28.7521 352.948 28.6956 351.985 29.3977 351.816C35.2739 350.422 41.9348 348.839 47.337 343.681C52.1672 339.072 54.0715 333.874 55.4445 327.486C59.688 307.577 57.6601 261.187 56.6187 242.579C56.5495 241.343 57.3443 240.239 58.5338 239.899M20.1999 80.5585C14.8934 79.7134 9.69322 83.0343 8.49231 88.2718C-16.4436 197.022 18.4611 213.92 49.8464 235.575C49.8968 235.609 49.8864 235.686 49.8271 235.701C49.7916 235.711 49.7651 235.727 49.7675 235.764C50.0935 240.679 54.055 303.126 49.1596 326.132C47.8846 332.078 46.3808 335.702 42.9155 339.007C33.8437 347.666 19.2552 343.41 8.67952 355.096C8.28985 355.527 8.53684 356.235 9.10664 356.349C27.9335 360.09 43.7973 360.992 55.5753 360.992C55.7387 360.992 55.9104 360.992 56.0738 360.992C77.029 360.934 110.039 359.532 110.489 354.145C110.587 353.013 109.222 352.111 106.95 350.643C94.6986 342.754 84.0331 347.97 74.3074 341.926C71.8787 340.417 68.7254 337.731 66.0776 332.54C65.4574 331.324 65.1928 329.963 65.1892 328.598L64.9337 231.553C64.9334 231.453 64.8367 231.382 64.741 231.409C64.5682 231.459 64.4939 231.204 64.6513 231.117C127.482 196.377 116.512 133.078 109.567 91.0947C108.58 85.1279 102.598 81.3092 96.6368 82.332C87.2783 83.9379 77.3226 84.5447 67.622 84.5447C48.6519 84.5447 30.6904 82.2292 20.1999 80.5585Z" fill="#F5F5F5"/>
</g>
<defs>
<clipPath id="clip0_60_33">
<rect width="115" height="361" fill="white"/>
</clipPath>
</defs>
</svg>
